<?xml version="1.0" encoding="utf-8"?>
<!-- Generator: Adobe Illustrator 25.0.0, SVG Export Plug-In . SVG Version: 6.00 Build 0)  -->
<svg version="1.1" xmlns="http://www.w3.org/2000/svg" xmlns:xlink="http://www.w3.org/1999/xlink" x="0px" y="0px"
	 viewBox="0 0 500 500" style="enable-background:new 0 0 500 500;" xml:space="preserve">
<style type="text/css">
	.st0{display:none;}
	.st1{display:inline;fill:#FFFFFF;}
	.st2{opacity:0.3;fill:#ABD5E6;}
	.st3{opacity:0.3;fill:#FFCE68;}
	.st4{display:none;opacity:0.1;fill:#1D262D;}
	.st5{fill:#2DB473;}
	.st6{opacity:0.2;fill:#1D262D;}
	.st7{fill:#FFFFFF;}
	.st8{fill:#DC894E;}
	.st9{fill:#FFCE68;}
	.st10{opacity:0.2;clip-path:url(#XMLID_2_);fill:#CC2A3A;}
	.st11{fill:#ABD5E6;}
	.st12{opacity:0.1;clip-path:url(#XMLID_3_);fill:#1D262D;}
	.st13{opacity:0.1;clip-path:url(#XMLID_4_);fill:#1D262D;}
	.st14{fill:#FFD1BB;}
	.st15{fill:#FFD555;}
	.st16{opacity:0.1;clip-path:url(#XMLID_5_);fill:#1D262D;}
	.st17{opacity:0.2;clip-path:url(#XMLID_6_);fill:#D15579;}
	.st18{fill:#798EC9;}
	.st19{opacity:0.43;clip-path:url(#XMLID_7_);fill:#FFFFFF;}
	.st20{clip-path:url(#XMLID_7_);fill:#215B74;}
	.st21{opacity:0.5;clip-path:url(#XMLID_7_);fill:#D15579;}
	.st22{opacity:0.2;clip-path:url(#XMLID_7_);fill:#D15579;}
	.st23{clip-path:url(#XMLID_8_);fill:#23809B;}
	.st24{fill:#FFAA4D;}
	.st25{fill:#27305C;}
	.st26{opacity:0.2;clip-path:url(#XMLID_9_);fill:#D15579;}
	.st27{fill:#FFA690;}
	.st28{fill:#0A303E;}
	.st29{fill:#E15C56;}
	.st30{fill:#215B74;}
	.st31{fill:#23809B;}
	.st32{display:inline;}
	.st33{fill:#ACB7C6;}
</style>
<g id="BACKGROUND" class="st0">
	<rect class="st1" width="500" height="500"/>
</g>
<g id="OBJECTS">
	<g>
		<path class="st2" d="M315.61,113.64c-14.99,2.83-30.26-3.06-43.56-10.53c-18.51-10.39-35.04-23.97-53.02-35.26
			s-38.18-20.47-59.42-20.51c-21.23-0.04-43.51,10.88-51.88,30.4c-8.87,20.69-0.64,44.73-4.48,66.91c-6.23,35.97-42.69,61-48.77,97
			c-3.48,20.62,3.85,41.87,15.52,59.21c24.84,36.91,71.25,58.85,115.24,52.15c27.99-4.26,53.51-19.12,74.76-37.84
			c21.25-18.72,38.71-41.27,56.03-63.67"/>
		<path class="st3" d="M328.4,373.05c-5.25-6.24-10.1-12.82-14.5-19.68c-4.23-6.58-8.1-13.57-9.64-21.24
			c-2.07-10.3,0.24-20.95,3.09-31.06c3.28-11.6,7.37-23.14,14.17-33.09c6.81-9.95,16.62-18.25,28.3-21.23
			c9.51-2.43,19.6-1.24,29.22-3.2c18.61-3.81,32.98-18.95,42.33-35.47c4.93-8.71,9.49-18.67,18.55-22.92
			c10.62-4.98,24.11,0.53,30.61,10.29c6.5,9.76,7.04,22.51,4.37,33.93c-2.67,11.42-8.23,21.92-13.26,32.52
			c-5.04,10.6-9.67,21.7-10.3,33.41c-1.03,19.32,8.94,38.3,6.21,57.46c-1.54,10.77-7.05,20.64-13.97,29.03
			c-5.75,6.97-12.63,13.15-20.77,17.05c-12.19,5.84-26.57,6.14-39.62,2.61c-13.05-3.52-24.9-10.64-35.5-19.03"/>
		<ellipse class="st4" cx="249.82" cy="425.28" rx="221.04" ry="12.48"/>
		<g>
			<g>
				<g>
					<rect x="190.18" y="104.11" class="st5" width="239.17" height="319.07"/>
					<rect x="204.82" y="125.61" class="st6" width="209.89" height="285.83"/>
					<rect x="204.82" y="120.73" class="st7" width="209.89" height="285.83"/>
					<polygon class="st8" points="189.13,123.97 189.13,103.06 210.04,103.06 					"/>
					<polygon class="st8" points="430.4,123.97 430.4,103.06 409.49,103.06 					"/>
					<polygon class="st8" points="189.13,404.14 189.13,425.05 210.04,425.05 					"/>
					<polygon class="st8" points="430.4,404.14 430.4,425.05 409.49,425.05 					"/>
				</g>
				<path class="st9" d="M309.77,111.97L309.77,111.97c-8.25,0-14.94,3.82-14.94-4.44v-1.27c0-8.25,6.69-14.94,14.94-14.94h0
					c8.25,0,14.94,6.69,14.94,14.94v1.27C324.71,115.78,318.02,111.97,309.77,111.97z"/>
				<rect x="270.74" y="123.97" class="st6" width="78.05" height="7.02"/>
				<g>
					<defs>
						<rect id="XMLID_21_" x="268.62" y="100.43" width="82.29" height="27.66"/>
					</defs>
					<use xlink:href="#XMLID_21_"  style="overflow:visible;fill:#FFCE68;"/>
					<clipPath id="XMLID_2_">
						<use xlink:href="#XMLID_21_"  style="overflow:visible;"/>
					</clipPath>
					<rect x="260.4" y="115.63" class="st10" width="100.92" height="15.86"/>
				</g>
				<g>
					<g>
						<rect x="225.82" y="173.69" class="st11" width="28.72" height="28.72"/>
						<path class="st11" d="M257.57,205.45h-34.8v-34.8h34.8V205.45z M223.83,204.4h32.7v-32.7h-32.7V204.4z"/>
					</g>
					<g>
						<rect x="225.82" y="217.69" class="st11" width="28.72" height="28.72"/>
						<path class="st11" d="M257.57,249.44h-34.8v-34.8h34.8V249.44z M223.83,248.39h32.7v-32.7h-32.7V248.39z"/>
					</g>
					<g>
						<rect x="225.82" y="261.68" class="st11" width="28.72" height="28.72"/>
						<path class="st11" d="M257.57,293.44h-34.8v-34.8h34.8V293.44z M223.83,292.39h32.7v-32.7h-32.7V292.39z"/>
					</g>
					<path class="st5" d="M237.62,198.1l-16.58-16.4c-1.15-1.14-1.16-2.99-0.02-4.13c1.14-1.15,2.99-1.15,4.13-0.02l12.24,12.11
						l19.42-21.45c1.08-1.2,2.93-1.29,4.13-0.2c1.2,1.08,1.29,2.93,0.2,4.13L237.62,198.1z"/>
					<path class="st5" d="M237.62,242.43l-16.58-16.4c-1.15-1.14-1.16-2.99-0.02-4.13c1.14-1.15,2.99-1.15,4.13-0.02l12.24,12.11
						l19.42-21.45c1.08-1.2,2.93-1.29,4.13-0.2c1.2,1.08,1.29,2.93,0.2,4.13L237.62,242.43z"/>
					<path class="st5" d="M237.62,285.71l-16.58-16.4c-1.15-1.14-1.16-2.99-0.02-4.13c1.14-1.15,2.99-1.15,4.13-0.02l12.24,12.11
						l19.42-21.45c1.08-1.2,2.93-1.29,4.13-0.2c1.2,1.08,1.29,2.93,0.2,4.13L237.62,285.71z"/>
					<g>
						<rect x="225.82" y="305.68" class="st11" width="28.72" height="28.72"/>
						<path class="st11" d="M257.57,337.44h-34.8v-34.8h34.8V337.44z M223.83,336.39h32.7v-32.7h-32.7V336.39z"/>
					</g>
					<g>
						<rect x="225.82" y="349.68" class="st11" width="28.72" height="28.72"/>
						<path class="st11" d="M257.57,381.43h-34.8v-34.8h34.8V381.43z M223.83,380.38h32.7v-32.7h-32.7V380.38z"/>
					</g>
					<g>
						<rect x="267.97" y="177.99" class="st5" width="127.08" height="3.47"/>
						<rect x="267.97" y="186.31" class="st5" width="127.08" height="3.47"/>
						<rect x="267.97" y="194.64" class="st5" width="39.29" height="3.47"/>
					</g>
					<g>
						<rect x="267.97" y="221.43" class="st5" width="127.08" height="3.47"/>
						<rect x="267.97" y="229.76" class="st5" width="127.08" height="3.47"/>
						<rect x="267.97" y="238.08" class="st5" width="83.04" height="3.47"/>
					</g>
					<g>
						<rect x="267.97" y="264.88" class="st5" width="127.08" height="3.47"/>
						<rect x="267.97" y="273.2" class="st5" width="108.69" height="3.47"/>
						<rect x="267.97" y="281.52" class="st5" width="39.29" height="3.47"/>
					</g>
					<g>
						<rect x="267.97" y="308.32" class="st5" width="127.08" height="3.47"/>
						<rect x="267.97" y="316.64" class="st5" width="64.04" height="3.47"/>
					</g>
					<g>
						<rect x="267.97" y="351.76" class="st5" width="127.08" height="3.47"/>
						<rect x="267.97" y="360.09" class="st5" width="127.08" height="3.47"/>
						<rect x="267.97" y="368.41" class="st5" width="92.66" height="3.47"/>
					</g>
				</g>
				<rect x="249.53" y="142.65" class="st5" width="120.81" height="8.56"/>
				<path class="st7" d="M313.21,97.99c0,1.9-1.54,3.44-3.44,3.44c-1.9,0-3.44-1.54-3.44-3.44c0-1.9,1.54-3.44,3.44-3.44
					C311.67,94.55,313.21,96.09,313.21,97.99z"/>
			</g>
		</g>
		<g>
			<g>
				<defs>
					<path id="XMLID_23_" d="M67.67,408.22l-1.96,9.7c0,0-12.37,2.69-13.11,5.52c-0.75,2.84,25.97,0.9,25.97,0.9l2.84-16.12"/>
				</defs>
				<use xlink:href="#XMLID_23_"  style="overflow:visible;fill:#47648F;"/>
				<clipPath id="XMLID_3_">
					<use xlink:href="#XMLID_23_"  style="overflow:visible;"/>
				</clipPath>
				<path class="st12" d="M63.53,403.9c-0.81,0.6-1.16,1.68-1.05,2.68c0.11,1,0.62,1.92,1.25,2.69c1.57,1.92,3.9,3.08,6.27,3.83
					c2.25,0.71,4.6,1.1,6.96,1.15c2.93,0.07,6.03-0.45,8.31-2.3s3.43-5.3,1.97-7.85c-0.8-1.39-2.21-2.32-3.63-3.06
					c-2.57-1.33-5.36-2.22-8.22-2.64"/>
			</g>
			<g>
				<defs>
					<path id="XMLID_66_" d="M134.84,408.22l-0.31,9.7c0,0,12.37,2.69,13.11,5.52c0.75,2.84-25.97,0.9-25.97,0.9l-0.57-16.12"/>
				</defs>
				<use xlink:href="#XMLID_66_"  style="overflow:visible;fill:#47648F;"/>
				<clipPath id="XMLID_4_">
					<use xlink:href="#XMLID_66_"  style="overflow:visible;"/>
				</clipPath>
				<path class="st13" d="M121.65,403.07c-1.88,1.08-3.47,2.65-4.57,4.51c-0.59,1-1.05,2.1-1.09,3.26c-0.04,1.16,0.4,2.38,1.33,3.07
					c0.57,0.43,1.29,0.63,1.99,0.74c1.4,0.21,4.55,0.6,5.96,0.46c3.99-0.39,6.49-1.43,9.65-3.91c3.73-2.92,5.15-8.44,3.28-12.79"/>
			</g>
			<g>
				<path class="st14" d="M189.75,183.45c0,0-9.18-2.86-8.99-5.52c0.19-2.66,6.38-0.49,6.38-0.49s-3.45-12.68-1.96-13.71
					c1.48-1.03,3.72,6.9,3.72,6.9s0.43-7.73,2.43-7.59c2,0.15,1.61,6.34,1.61,6.34s2.23-4.93,4.18-4.11
					c1.95,0.81-1.26,6.18-1.26,6.18s4.95-2.8,5.73-1.46c0.78,1.35-3.11,5.82-3.11,5.82s4.81,4.53-0.99,13.23
					c-1.59-0.67-6.1-2.75-8.45-2.26L189.75,183.45z"/>
				<path class="st15" d="M130.18,221.94c0,0,41.55,3.67,57.44-36.62c11.35-1.71,11.35,6.3,11.35,6.3s-15.71,59-64.46,51.27"/>
				<g>
					<defs>
						<path id="XMLID_22_" d="M84.61,294.72c0,0-12.74,72.16-18.9,115.33c13.24,1.46,16.02,0.57,16.02,0.57l24.58-88.22
							c0,0,6.74,0,10.79,0c0.8,0.85,3.23,88.22,3.23,88.22s11.11,1.64,15.48-0.63c0,0,5-67.24,6.34-103.7L84.61,294.72z"/>
					</defs>
					<use xlink:href="#XMLID_22_"  style="overflow:visible;fill:#798EC9;"/>
					<clipPath id="XMLID_5_">
						<use xlink:href="#XMLID_22_"  style="overflow:visible;"/>
					</clipPath>
					<path class="st16" d="M59.08,295.45c17.98,13.81,41.16,20.67,63.77,18.88c22.6-1.79,44.42-12.2,60.01-28.66
						c-38.74-2.82-78.72-5.08-115.42,7.65"/>
				</g>
				<g>
					<defs>
						<path id="XMLID_65_" d="M119.81,220.35c0,0-13.97,0.8-17.84,4.54c-3.88,3.75-12.15,29.21-17.36,69.83
							c20.8,21.94,57.54,11.58,57.54,11.58s1.87-74.02-0.1-77.74C138.28,221.44,119.81,220.35,119.81,220.35z"/>
					</defs>
					<use xlink:href="#XMLID_65_"  style="overflow:visible;fill:#FFD555;"/>
					<clipPath id="XMLID_6_">
						<use xlink:href="#XMLID_65_"  style="overflow:visible;"/>
					</clipPath>
					<path class="st17" d="M101.54,295.52c21.59,1.74,39.71-9.21,47.5-15.26c1.53-1.19,3.69-1.34,5.16-2.6
						c1.48-1.25,2.51-3.22,2.11-5.12c-0.62-2.98-4.13-4.25-7.12-4.82c-14.27-2.73-28.99-1.68-43.11,1.43
						c-6.29,1.39-34.93,5.94-25.2,17.41C85.08,291.52,95.27,295.02,101.54,295.52z"/>
				</g>
				<path class="st18" d="M142.15,306.3"/>
			</g>
			<g>
				<g>
					<defs>
						<path id="XMLID_63_" d="M29.04,298.89l-2.61-9.12c-1.12-3.92,1.14-8.01,5.06-9.13l130.99-37.55l6.68,23.31L38.17,303.95
							C34.25,305.08,30.16,302.81,29.04,298.89z"/>
					</defs>
					<use xlink:href="#XMLID_63_"  style="overflow:visible;fill:#DD7E62;"/>
					<clipPath id="XMLID_7_">
						<use xlink:href="#XMLID_63_"  style="overflow:visible;"/>
					</clipPath>
					
						<rect x="123.99" y="255.76" transform="matrix(0.2756 0.9613 -0.9613 0.2756 356.3372 43.1923)" class="st19" width="51.04" height="4.52"/>
					
						<rect x="17.97" y="286.15" transform="matrix(0.2756 0.9613 -0.9613 0.2756 308.7526 167.1191)" class="st19" width="51.04" height="4.52"/>
					
						<rect x="-1.05" y="277.03" transform="matrix(0.2756 0.9613 -0.9613 0.2756 301.563 190.3664)" class="st20" width="51.04" height="36.47"/>
					
						<rect x="92.36" y="205.26" transform="matrix(0.2756 0.9613 -0.9613 0.2756 354.8422 109.7412)" class="st21" width="24.49" height="170.07"/>
					
						<rect x="82.56" y="171.07" transform="matrix(0.2756 0.9613 -0.9613 0.2756 314.8657 94.3908)" class="st22" width="24.49" height="170.07"/>
				</g>
				<g>
					<defs>
						<polygon id="XMLID_64_" points="162.48,243.09 185.01,249.24 169.16,266.4 						"/>
					</defs>
					<use xlink:href="#XMLID_64_"  style="overflow:visible;fill:#FFEAAA;"/>
					<clipPath id="XMLID_8_">
						<use xlink:href="#XMLID_64_"  style="overflow:visible;"/>
					</clipPath>
					
						<ellipse transform="matrix(0.9202 -0.3916 0.3916 0.9202 -81.7395 94.7065)" class="st23" cx="191.34" cy="247.77" rx="14.61" ry="14.61"/>
				</g>
			</g>
			<path class="st14" d="M99.2,279.25c0,0,6.9-0.36,9.99,0.95c3.09,1.31,4.59,2.08,4.59,2.08l6.17-1.77c0,0-1.49,8.13-8.87,8.72
				c-7.38,0.59-13.67-1.54-13.67-1.54L99.2,279.25z"/>
			<path class="st15" d="M111.83,221.44c0,0-43.58,2.69-47.26,41.16c-2.53,26.46,34.37,27.8,34.37,27.8l1.73-11.73
				c0,0-15.49-6.42-15.49-15.89c0-9.47,16.8-16.48,16.8-16.48L111.83,221.44z"/>
			<path class="st24" d="M120.32,219.71c-7.72,0-15.16,2.71-15.16,2.71l18,15.29l14.5-15.88
				C137.67,221.83,132.71,219.71,120.32,219.71z"/>
			<path class="st25" d="M110.42,208.91c0,0-6.52,0.49-8.79-1.57c-4.58-4.16-7.84-28.03-8.01-33.05
				c-0.17-5.01,5.8-12.11,12.73-12.15c0.99-7.38,5.11-5.1,5.11-5.1s-1.94-3.1,0.5-5.33c1.38,2.64,2.17,4.68,2.17,4.68
				s3.85-3.16,12.56-1.55c8.72,1.61,14.1-2.57,16.16,1.64c2.06,4.21,5.44,17.12-0.19,19.58
				C137.03,178.53,107.83,193.94,110.42,208.91z"/>
			<g>
				<defs>
					<polyline id="XMLID_24_" points="109.44,203.1 112.18,224.13 122.99,233.33 132,224.13 132,210.58 					"/>
				</defs>
				<use xlink:href="#XMLID_24_"  style="overflow:visible;fill:#FFD1BB;"/>
				<clipPath id="XMLID_9_">
					<use xlink:href="#XMLID_24_"  style="overflow:visible;"/>
				</clipPath>
				<path class="st26" d="M119.02,192.79c-2.6,0.05-4.93,1.9-6.14,4.21s-1.45,5-1.35,7.61c0.08,2.1,0.38,4.23,1.23,6.16
					c1.05,2.39,2.89,4.37,5.01,5.88c2.83,2.02,6.31,3.28,9.77,2.95s6.83-2.47,8.12-5.7c1.44-3.6,0.14-7.77-1.98-11.02
					c-2.44-3.74-6.14-6.85-10.52-7.73c-1.87-0.38-4.02-0.27-5.41,1.05"/>
			</g>
			<path class="st14" d="M113.45,166.4c-7.24,3.1-14.14,29.86-5.12,41.39c9.02,11.53,30.64,9.35,38.15,0.56
				C152.61,201.19,143.63,153.5,113.45,166.4z"/>
			<path class="st27" d="M134.89,182.51c-1.27,0.61,1,13.14,1,13.14c1.72,0.22,7.06-2.63,7.06-3.75
				C142.95,191.89,137.31,181.35,134.89,182.51z"/>
			<path class="st25" d="M99.39,193.8c0.12-2.1,1.91-3.74,3.83-4.6c1.92-0.86,4.92,4.05,7.02,3.94c3.42-0.18,6.21-1.85,6.59-3.25
				c0.27-0.99,0.04-12.56,1.49-14.22c2.47-2.82,6.73-2.98,10.48-2.95c3.75,0.03,8.03-0.21,10.4-3.12c0.54-0.67,0.96-1.47,1.07-2.32
				c0.18-1.35-0.4-2.7-1.2-3.79c-2.75-3.76-7.87-5.02-12.52-4.77c-7.56,0.42-14.8,4.25-19.7,10.02c-4.91,5.77-7.51,13.36-7.57,20.94
				"/>
			<path class="st14" d="M111.48,195.14c0,0,0.9-13.99-6.28-11.97c-7.18,2.02-5.48,16.1,2.69,15.83"/>
			<path class="st25" d="M123.06,182.12c-0.32,0.71,0.6,2.59,1.61,2.44c1.01-0.15,5.95-0.79,6.44-1.95
				c0.49-1.16-0.36-2.59-1.04-2.82C129.38,179.55,123.46,181.24,123.06,182.12z"/>
			<path class="st25" d="M138.5,178.35c-0.36,0.67,0.26,2.64,1.17,2.6c0.91-0.04,5.34-0.12,5.9-1.22c0.56-1.1-0.05-2.61-0.63-2.92
				C144.36,176.49,138.94,177.52,138.5,178.35z"/>
			<path class="st28" d="M129.46,190.39c0.4,0.18,0.8,0.11,1.17,0.01c0.57-0.16,1.17-0.47,1.33-1.26c0.13-0.67-0.1-1.48-0.41-2.16
				c-0.17-0.37-0.36-0.72-0.6-1c-0.69-0.81-1.68-0.78-2.19-0.02C128.11,186.92,128.18,189.81,129.46,190.39z"/>
			<path class="st28" d="M141.64,187.44c0.4,0.18,0.8,0.11,1.17,0.01c0.57-0.16,1.17-0.47,1.33-1.26c0.13-0.67-0.1-1.48-0.41-2.16
				c-0.17-0.37-0.36-0.72-0.6-1c-0.69-0.81-1.68-0.78-2.19-0.02C140.29,183.98,140.36,186.87,141.64,187.44z"/>
			<path class="st27" d="M109.43,189.25c-0.1-1.43-0.96-2.8-2.24-3.44c-0.9-0.45-2.05-0.52-2.88,0.05
				c-0.83,0.57-1.16,1.86-0.53,2.64c0.32,0.4,0.84,0.65,0.99,1.14c0.14,0.47-0.12,0.96-0.32,1.41c-0.42,0.94-0.55,2.15,0.16,2.89
				c0.43,0.45,1.11,0.62,1.71,0.46C108.14,193.9,109.55,190.98,109.43,189.25z"/>
			<path class="st14" d="M105.6,280.35c0,0,5.77-2.65,7.23-2.84c1.47-0.19,2.22,1.12,1.84,1.89c-0.38,0.76-4.49,3.22-4.49,3.22"/>
		</g>
		<g>
			<circle class="st29" cx="453.66" cy="150.37" r="6.24"/>
			<path class="st30" d="M448.12,85.37c0,3.29-2.66,5.95-5.95,5.95c-3.29,0-5.95-2.66-5.95-5.95c0-3.29,2.66-5.95,5.95-5.95
				C445.46,79.42,448.12,82.08,448.12,85.37z"/>
			<path class="st9" d="M393.69,55.56c1.81,1.81,1.81,4.73,0,6.54c-1.81,1.81-4.73,1.81-6.54,0c-1.81-1.81-1.81-4.73,0-6.54
				C388.95,53.75,391.88,53.75,393.69,55.56z"/>
			<circle class="st9" cx="464.53" cy="286.94" r="4.63"/>
			<path class="st9" d="M349.3,47.38c0,2.42-1.96,4.38-4.38,4.38c-2.42,0-4.38-1.96-4.38-4.38c0-2.42,1.96-4.38,4.38-4.38
				C347.34,43,349.3,44.96,349.3,47.38z"/>
			<path class="st9" d="M42.8,348.76c0,2.42-1.96,4.38-4.38,4.38c-2.42,0-4.38-1.96-4.38-4.38c0-2.42,1.96-4.38,4.38-4.38
				C40.84,344.38,42.8,346.34,42.8,348.76z"/>
			<path class="st31" d="M380.9,87.49c0,1.17-0.95,2.12-2.12,2.12c-1.17,0-2.12-0.95-2.12-2.12c0-1.17,0.95-2.12,2.12-2.12
				C379.95,85.37,380.9,86.32,380.9,87.49z"/>
			<circle class="st31" cx="438.41" cy="45.19" r="2.19"/>
			<circle class="st31" cx="478.6" cy="180.34" r="2.19"/>
			<circle class="st8" cx="266.32" cy="63.26" r="4.43"/>
			<circle class="st31" cx="154.88" cy="115.16" r="3.9"/>
			<path class="st9" d="M158.78,76.96c0,2.9-2.35,5.24-5.24,5.24c-2.9,0-5.24-2.35-5.24-5.24s2.35-5.24,5.24-5.24
				C156.44,71.72,158.78,74.06,158.78,76.96z"/>
			<path class="st9" d="M81.4,132.52c0,2.78-2.26,5.04-5.04,5.04c-2.78,0-5.04-2.26-5.04-5.04c0-2.78,2.26-5.04,5.04-5.04
				C79.14,127.48,81.4,129.73,81.4,132.52z"/>
			<path class="st30" d="M132,117.27c0,1.66-1.35,3-3,3c-1.66,0-3-1.35-3-3c0-1.66,1.35-3,3-3C130.65,114.26,132,115.61,132,117.27z
				"/>
			<path class="st30" d="M67.45,326.56c0,1.66-1.35,3-3,3c-1.66,0-3-1.35-3-3c0-1.66,1.35-3,3-3
				C66.11,323.56,67.45,324.9,67.45,326.56z"/>
			<path class="st8" d="M84.61,83.54c0,2.28-1.85,4.12-4.12,4.12c-2.28,0-4.12-1.85-4.12-4.12c0-2.28,1.85-4.12,4.12-4.12
				C82.76,79.42,84.61,81.27,84.61,83.54z"/>
			<path class="st29" d="M41.94,196.54c0,1.94-1.57,3.52-3.52,3.52c-1.94,0-3.52-1.57-3.52-3.52c0-1.94,1.57-3.52,3.52-3.52
				C40.36,193.02,41.94,194.6,41.94,196.54z"/>
		</g>
	</g>
</g>
<g id="DESIGNED_BY_FREEPIK" class="st0">
	<g class="st32">
		<g id="XMLID_25_">
			<g id="XMLID_44_">
				<path id="XMLID_52_" class="st33" d="M260.1,465.47c-0.43,0.44-0.8,0.93-1.11,1.45l-0.47-0.24c-0.07-0.3-0.35-0.5-0.66-0.47
					c-0.33,0.04-0.57,0.34-0.53,0.67c0.04,0.33,0.34,0.57,0.67,0.53c0.07-0.01,0.13-0.03,0.18-0.05l0.45,0.23
					c-0.25,0.55-0.43,1.14-0.54,1.74l0.75,0.13c0.23-1.31,0.85-2.51,1.79-3.47L260.1,465.47z"/>
				<path id="XMLID_51_" class="st33" d="M265.59,463.16c-0.17,0-0.34,0.01-0.51,0.02l-0.07-0.63c0.19-0.15,0.3-0.39,0.27-0.64
					c-0.05-0.39-0.4-0.67-0.8-0.63c-0.39,0.05-0.67,0.4-0.63,0.8c0.03,0.25,0.19,0.46,0.4,0.56l0.07,0.62
					c-0.71,0.12-1.4,0.33-2.06,0.65l0.33,0.68c0.93-0.45,1.94-0.67,3-0.67c0.5,0,0.99,0.05,1.48,0.16l0.16-0.74
					C266.69,463.22,266.14,463.16,265.59,463.16z"/>
				<path id="XMLID_50_" class="st33" d="M272.19,465.71c0.33-0.04,0.57-0.34,0.53-0.67c-0.04-0.33-0.34-0.57-0.67-0.53
					c-0.31,0.04-0.54,0.3-0.53,0.61l-0.42,0.36c-0.42-0.43-0.89-0.81-1.41-1.14l-0.4,0.64c1.13,0.71,2.02,1.73,2.56,2.93l0.69-0.31
					c-0.25-0.55-0.57-1.07-0.94-1.55l0.4-0.35C272.06,465.72,272.13,465.72,272.19,465.71z"/>
				<path id="XMLID_49_" class="st33" d="M265.04,473.37c-0.39,0.02-0.78,0.03-1.16,0.03c-0.88,0-1.73-0.06-2.48-0.18
					c-0.39-0.06-0.85-0.15-1.27-0.29c1.05,1.86,3.07,3.12,5.39,3.12c2.86,0,5.26-1.92,5.95-4.5c-0.68,0.45-1.51,0.83-2.46,1.12
					C267.84,473.05,266.46,473.29,265.04,473.37z"/>
				<path id="XMLID_45_" class="st33" d="M265.59,464.68c-3.35,0-6.08,2.67-6.08,5.94c0,0.43,0.05,0.85,0.14,1.26
					c0.67,0.48,2.71,0.89,5.35,0.73c2.88-0.17,5.3-0.96,6.67-2.16c-0.01-0.19-0.02-0.39-0.05-0.58
					C271.24,466.91,268.65,464.68,265.59,464.68z M263.43,471.19c-1.02,0-1.85-0.83-1.85-1.85c0-1.02,0.83-1.85,1.85-1.85
					s1.85,0.83,1.85,1.85C265.28,470.36,264.45,471.19,263.43,471.19z M268.17,470.29c-0.75,0-1.36-0.61-1.36-1.36
					s0.61-1.36,1.36-1.36c0.75,0,1.36,0.61,1.36,1.36S268.92,470.29,268.17,470.29z"/>
			</g>
			<path id="XMLID_42_" class="st33" d="M281.6,466.55c-0.29-0.12-0.81-0.31-1.38-0.24c-0.55,0.07-0.84,0.34-0.84,1.01v0.87h2.23
				v1.72h-2.23v5.45h-1.93v-5.45h-1.34v-1.72h1.34v-0.89c0-1.68,0.9-2.78,2.57-2.78c0.64,0,1.16,0.12,1.59,0.31L281.6,466.55z"/>
			<path id="XMLID_40_" class="st33" d="M286.3,469.88c-0.18-0.03-0.36-0.05-0.53-0.05c-0.9,0-1.51,0.55-1.51,1.61v3.91h-1.93v-7.17
				h1.87v0.78c0.45-0.67,1.14-0.98,2.02-0.98c0.41,0,0.85,0.13,1.09,0.34L286.3,469.88z"/>
			<path id="XMLID_37_" class="st33" d="M293.97,471.76c0,0.22-0.01,0.49-0.04,0.65h-5.08c0.21,1.04,0.93,1.49,1.84,1.49
				c0.62,0,1.3-0.25,1.81-0.69l1.13,1.24c-0.81,0.75-1.85,1.09-3.06,1.09c-2.2,0-3.72-1.5-3.72-3.75c0-2.26,1.48-3.8,3.63-3.8
				C292.54,467.99,293.96,469.52,293.97,471.76z M288.85,471.09h3.18c-0.18-0.92-0.73-1.44-1.56-1.44
				C289.55,469.65,289.02,470.2,288.85,471.09z"/>
			<path id="XMLID_34_" class="st33" d="M301.62,471.76c0,0.22-0.02,0.49-0.04,0.65h-5.08c0.21,1.04,0.93,1.49,1.84,1.49
				c0.62,0,1.3-0.25,1.81-0.69l1.13,1.24c-0.81,0.75-1.85,1.09-3.06,1.09c-2.2,0-3.72-1.5-3.72-3.75c0-2.26,1.48-3.8,3.63-3.8
				C300.2,467.99,301.61,469.52,301.62,471.76z M296.5,471.09h3.18c-0.18-0.92-0.73-1.44-1.56-1.44
				C297.21,469.65,296.67,470.2,296.5,471.09z"/>
			<path id="XMLID_31_" class="st33" d="M309.96,471.76c0,2.15-1.5,3.77-3.47,3.77c-0.96,0-1.64-0.38-2.11-0.93v3.71h-1.92v-10.13
				h1.89v0.79c0.47-0.58,1.15-0.98,2.14-0.98C308.47,467.99,309.96,469.61,309.96,471.76z M304.29,471.76
				c0,1.13,0.75,1.98,1.84,1.98c1.14,0,1.85-0.88,1.85-1.98c0-1.1-0.71-1.98-1.85-1.98C305.03,469.79,304.29,470.63,304.29,471.76z"
				/>
			<path id="XMLID_28_" class="st33" d="M313.07,465.84c0,0.7-0.54,1.23-1.24,1.23c-0.7,0-1.23-0.53-1.23-1.23
				c0-0.7,0.53-1.24,1.23-1.24C312.53,464.59,313.07,465.14,313.07,465.84z M312.81,475.35h-1.93v-7.17h1.93V475.35z"/>
			<path id="XMLID_26_" class="st33" d="M316.03,470.74l2.7-2.55h2.37l-3.48,3.38l3.5,3.8h-2.38l-2.72-2.9v2.9h-1.93V464.7h1.93
				V470.74z"/>
		</g>
		<g>
			<path class="st33" d="M184.41,475.29v-1.05c-0.53,0.72-1.39,1.23-2.39,1.23c-1.85,0-3.15-1.41-3.15-3.71
				c0-2.26,1.29-3.72,3.15-3.72c0.95,0,1.82,0.47,2.39,1.25v-3.76h1.1v9.77H184.41z M184.41,473.37v-3.21
				c-0.4-0.62-1.24-1.14-2.12-1.14c-1.42,0-2.27,1.17-2.27,2.74c0,1.57,0.85,2.72,2.27,2.72
				C183.17,474.48,184.02,473.99,184.41,473.37z"/>
			<path class="st33" d="M186.93,471.74c0-2.05,1.46-3.71,3.49-3.71c2.14,0,3.4,1.67,3.4,3.79v0.28h-5.73
				c0.09,1.33,1.03,2.45,2.55,2.45c0.81,0,1.63-0.32,2.18-0.89l0.53,0.72c-0.7,0.7-1.65,1.08-2.81,1.08
				C188.44,475.46,186.93,473.96,186.93,471.74z M190.4,468.95c-1.51,0-2.26,1.27-2.31,2.36h4.64
				C192.72,470.25,192.01,468.95,190.4,468.95z"/>
			<path class="st33" d="M194.61,474.35l0.57-0.79c0.47,0.54,1.36,1.01,2.33,1.01c1.08,0,1.67-0.51,1.67-1.22
				c0-1.71-4.38-0.66-4.38-3.28c0-1.1,0.95-2.04,2.64-2.04c1.2,0,2.05,0.45,2.62,1.03l-0.51,0.76c-0.42-0.51-1.2-0.89-2.11-0.89
				c-0.97,0-1.57,0.48-1.57,1.11c0,1.55,4.38,0.53,4.38,3.28c0,1.19-0.95,2.14-2.78,2.14C196.31,475.46,195.32,475.11,194.61,474.35
				z"/>
			<path class="st33" d="M201.48,466.47c0-0.41,0.34-0.75,0.73-0.75c0.41,0,0.75,0.34,0.75,0.75c0,0.41-0.34,0.73-0.75,0.73
				C201.81,467.2,201.48,466.88,201.48,466.47z M201.67,475.29v-7.07h1.1v7.07H201.67z"/>
			<path class="st33" d="M204.58,477.11l0.56-0.82c0.59,0.7,1.29,0.97,2.3,0.97c1.17,0,2.27-0.57,2.27-2.12v-1.01
				c-0.51,0.72-1.38,1.26-2.37,1.26c-1.85,0-3.15-1.38-3.15-3.66c0-2.27,1.29-3.68,3.15-3.68c0.95,0,1.8,0.47,2.37,1.25v-1.07h1.1
				v6.87c0,2.34-1.64,3.08-3.37,3.08C206.24,478.16,205.42,477.93,204.58,477.11z M209.71,473.25v-3.09
				c-0.38-0.62-1.23-1.14-2.11-1.14c-1.42,0-2.27,1.13-2.27,2.7c0,1.55,0.85,2.7,2.27,2.7
				C208.48,474.41,209.33,473.87,209.71,473.25z"/>
			<path class="st33" d="M217.41,475.29v-4.63c0-1.24-0.63-1.64-1.58-1.64c-0.86,0-1.68,0.53-2.09,1.1v5.17h-1.1v-7.07h1.1v1.03
				c0.5-0.59,1.46-1.2,2.52-1.2c1.48,0,2.26,0.75,2.26,2.29v4.97H217.41z"/>
			<path class="st33" d="M219.93,471.74c0-2.05,1.46-3.71,3.49-3.71c2.14,0,3.4,1.67,3.4,3.79v0.28h-5.73
				c0.09,1.33,1.03,2.45,2.55,2.45c0.81,0,1.63-0.32,2.18-0.89l0.53,0.72c-0.7,0.7-1.66,1.08-2.81,1.08
				C221.44,475.46,219.93,473.96,219.93,471.74z M223.4,468.95c-1.51,0-2.26,1.27-2.31,2.36h4.64
				C225.72,470.25,225.02,468.95,223.4,468.95z"/>
			<path class="st33" d="M233.35,475.29v-1.05c-0.53,0.72-1.39,1.23-2.39,1.23c-1.85,0-3.15-1.41-3.15-3.71
				c0-2.26,1.29-3.72,3.15-3.72c0.95,0,1.82,0.47,2.39,1.25v-3.76h1.1v9.77H233.35z M233.35,473.37v-3.21
				c-0.4-0.62-1.25-1.14-2.12-1.14c-1.42,0-2.27,1.17-2.27,2.74c0,1.57,0.85,2.72,2.27,2.72
				C232.1,474.48,232.95,473.99,233.35,473.37z"/>
			<path class="st33" d="M239.69,475.29v-9.77h1.1v3.76c0.57-0.78,1.42-1.25,2.39-1.25c1.85,0,3.15,1.46,3.15,3.72
				c0,2.3-1.3,3.71-3.15,3.71c-1,0-1.86-0.51-2.39-1.23v1.05H239.69z M242.9,474.48c1.44,0,2.29-1.16,2.29-2.72
				c0-1.57-0.85-2.74-2.29-2.74c-0.86,0-1.73,0.53-2.11,1.14v3.21C241.17,473.99,242.04,474.48,242.9,474.48z"/>
			<path class="st33" d="M247.53,477.06c0.16,0.07,0.43,0.12,0.6,0.12c0.48,0,0.81-0.16,1.05-0.75l0.47-1.07l-2.96-7.15h1.19
				l2.36,5.8l2.34-5.8h1.2l-3.54,8.51c-0.42,1.03-1.14,1.42-2.08,1.44c-0.23,0-0.6-0.04-0.81-0.1L247.53,477.06z"/>
		</g>
	</g>
</g>
</svg>
