<?xml version="1.0" encoding="utf-8"?>
<!-- Generator: Adobe Illustrator 25.0.0, SVG Export Plug-In . SVG Version: 6.00 Build 0)  -->
<svg version="1.1" id="Capa_1" xmlns="http://www.w3.org/2000/svg" xmlns:xlink="http://www.w3.org/1999/xlink" x="0px" y="0px"
	 viewBox="0 0 425.2 425.2" style="enable-background:new 0 0 425.2 425.2;" xml:space="preserve">
<style type="text/css">
	.st0{display:none;}
	.st1{display:inline;fill:#FFFFFF;}
	.st2{display:inline;fill:url(#SVGID_1_);}
	.st3{display:inline;fill:url(#SVGID_2_);}
	.st4{display:inline;fill:url(#SVGID_3_);}
	.st5{display:inline;fill:url(#SVGID_4_);}
	.st6{display:inline;fill:url(#SVGID_5_);}
	.st7{display:inline;fill:url(#SVGID_6_);}
	.st8{display:inline;fill:url(#SVGID_7_);}
	.st9{display:inline;fill:url(#SVGID_8_);}
	.st10{display:inline;fill:url(#SVGID_9_);}
	.st11{display:none;fill:#003A54;}
	.st12{display:none;fill:#18ADD9;}
	.st13{display:none;fill:#14BAAB;}
	.st14{display:none;fill:#F5834E;}
	.st15{display:none;fill:#056F8C;}
	.st16{display:none;fill:#842A32;}
	.st17{display:none;fill:#FBB040;}
	.st18{display:none;fill:#678B42;}
	.st19{display:inline;}
	.st20{display:inline;clip-path:url(#SVGID_11_);}
	.st21{fill:#ECB79E;}
	.st22{fill:#D1D3D4;}
	.st23{fill:#7F4C20;}
	.st24{fill:#FFFFFF;}
	.st25{fill:#842A32;}
	.st26{fill:#BCBEC0;}
	.st27{fill:#040A14;}
	.st28{fill:#915728;}
	.st29{display:inline;clip-path:url(#SVGID_13_);}
	.st30{fill:#1D0000;}
	.st31{fill:#3C2415;}
	.st32{fill:#F7941D;}
	.st33{fill:#450000;}
	.st34{fill:#330000;}
	.st35{fill:#2C0000;}
	.st36{display:inline;clip-path:url(#SVGID_15_);}
	.st37{fill:#1A0100;}
	.st38{fill:#99343C;}
	.st39{fill:#321B0B;}
	.st40{fill:#200700;}
	.st41{fill:#392212;}
	.st42{display:inline;clip-path:url(#SVGID_17_);}
	.st43{fill:#D83633;}
	.st44{fill:#002331;}
	.st45{fill:#001221;}
	.st46{fill:#852A00;}
	.st47{fill:#963209;}
	.st48{display:inline;clip-path:url(#SVGID_19_);}
	.st49{fill:#390604;}
	.st50{fill:#411D0A;}
	.st51{display:inline;clip-path:url(#SVGID_21_);}
	.st52{fill:#00B9C5;}
	.st53{fill:#4A2F20;}
	.st54{fill:#EC524F;}
	.st55{clip-path:url(#SVGID_23_);}
	.st56{fill:#BE1E2D;}
	.st57{fill:#003A54;}
	.st58{fill:#00273E;}
	.st59{fill:#350806;}
	.st60{display:inline;clip-path:url(#SVGID_25_);}
	.st61{fill:#331400;}
	.st62{fill:#693E15;}
	.st63{fill:#8D5426;}
	.st64{display:inline;clip-path:url(#SVGID_27_);}
	.st65{fill:#560F00;}
	.st66{fill:#98330A;}
</style>
<g class="st0">
	<rect x="0" y="0" class="st1" width="425.2" height="425.2"/>
	<linearGradient id="SVGID_1_" gradientUnits="userSpaceOnUse" x1="196.8954" y1="156.8435" x2="89.3265" y2="84.0275">
		<stop  offset="0" style="stop-color:#FFFFFF"/>
		<stop  offset="1" style="stop-color:#5C5D60"/>
	</linearGradient>
	<polygon class="st2" points="119.38,44.96 248.88,126.2 197.53,213.29 58.18,128.78 	"/>
	<linearGradient id="SVGID_2_" gradientUnits="userSpaceOnUse" x1="320.3383" y1="151.0133" x2="212.7694" y2="78.1973">
		<stop  offset="0" style="stop-color:#FFFFFF"/>
		<stop  offset="1" style="stop-color:#5C5D60"/>
	</linearGradient>
	<polygon class="st3" points="242.82,39.13 372.33,120.37 320.98,207.46 181.63,122.95 	"/>
	<linearGradient id="SVGID_3_" gradientUnits="userSpaceOnUse" x1="448.4624" y1="151.6415" x2="340.8929" y2="78.8252">
		<stop  offset="0" style="stop-color:#FFFFFF"/>
		<stop  offset="1" style="stop-color:#5C5D60"/>
	</linearGradient>
	<polygon class="st4" points="425.2,71.95 371.82,38.46 310.63,122.29 425.2,191.77 	"/>
	<linearGradient id="SVGID_4_" gradientUnits="userSpaceOnUse" x1="194.117" y1="285.6893" x2="86.5481" y2="212.8734">
		<stop  offset="0" style="stop-color:#FFFFFF"/>
		<stop  offset="1" style="stop-color:#5C5D60"/>
	</linearGradient>
	<polygon class="st5" points="116.6,173.8 246.1,255.04 194.75,342.13 55.4,257.63 	"/>
	<linearGradient id="SVGID_5_" gradientUnits="userSpaceOnUse" x1="317.5613" y1="279.8591" x2="209.9925" y2="207.0432">
		<stop  offset="0" style="stop-color:#FFFFFF"/>
		<stop  offset="1" style="stop-color:#5C5D60"/>
	</linearGradient>
	<polygon class="st6" points="240.05,167.97 369.55,249.21 318.2,336.3 178.85,251.8 	"/>
	<linearGradient id="SVGID_6_" gradientUnits="userSpaceOnUse" x1="446.2939" y1="281.3992" x2="340.869" y2="210.0346">
		<stop  offset="0" style="stop-color:#FFFFFF"/>
		<stop  offset="1" style="stop-color:#5C5D60"/>
	</linearGradient>
	<polygon class="st7" points="425.2,203.2 369.05,167.97 310.63,253.48 425.2,322.96 	"/>
	<linearGradient id="SVGID_7_" gradientUnits="userSpaceOnUse" x1="192.5056" y1="415.856" x2="84.9352" y2="343.039">
		<stop  offset="0" style="stop-color:#FFFFFF"/>
		<stop  offset="1" style="stop-color:#5C5D60"/>
	</linearGradient>
	<polygon class="st8" points="220.92,425.2 244.49,385.21 114.99,303.97 53.79,387.79 115.47,425.2 	"/>
	<linearGradient id="SVGID_8_" gradientUnits="userSpaceOnUse" x1="315.9491" y1="410.0255" x2="208.3793" y2="337.209">
		<stop  offset="0" style="stop-color:#FFFFFF"/>
		<stop  offset="1" style="stop-color:#5C5D60"/>
	</linearGradient>
	<polygon class="st9" points="340.92,425.2 367.94,379.38 238.43,298.14 177.24,381.96 248.53,425.2 	"/>
	<linearGradient id="SVGID_9_" gradientUnits="userSpaceOnUse" x1="444.8916" y1="411.4099" x2="339.7592" y2="340.2433">
		<stop  offset="0" style="stop-color:#FFFFFF"/>
		<stop  offset="1" style="stop-color:#5C5D60"/>
	</linearGradient>
	<polygon class="st10" points="425.2,425.2 425.2,334.38 367.43,298.14 310.63,384.22 377.86,425.2 	"/>
</g>
<path class="st11" d="M134.1,212.6c0,28.9-23.43,52.33-52.33,52.33S29.44,241.5,29.44,212.6c0-28.9,23.43-52.33,52.33-52.33
	S134.1,183.7,134.1,212.6z"/>
<path class="st12" d="M395.76,343.43c0,28.9-23.43,52.33-52.33,52.33c-28.9,0-52.33-23.43-52.33-52.33
	c0-28.9,23.43-52.33,52.33-52.33C372.33,291.1,395.76,314.53,395.76,343.43z"/>
<path class="st13" d="M265.18,343.68c0,28.9-23.43,52.33-52.33,52.33c-28.9,0-52.33-23.43-52.33-52.33
	c0-28.9,23.43-52.33,52.33-52.33C241.75,291.35,265.18,314.78,265.18,343.68z"/>
<path class="st14" d="M134.1,343.43c0,28.9-23.43,52.33-52.33,52.33s-52.33-23.43-52.33-52.33c0-28.9,23.43-52.33,52.33-52.33
	S134.1,314.53,134.1,343.43z"/>
<path class="st15" d="M395.76,81.77c0,28.9-23.43,52.33-52.33,52.33c-28.9,0-52.33-23.43-52.33-52.33
	c0-28.9,23.43-52.33,52.33-52.33C372.33,29.44,395.76,52.87,395.76,81.77z"/>
<path class="st16" d="M395.76,212.6c0,28.9-23.43,52.33-52.33,52.33c-28.9,0-52.33-23.43-52.33-52.33
	c0-28.9,23.43-52.33,52.33-52.33C372.33,160.27,395.76,183.7,395.76,212.6z"/>
<path class="st17" d="M264.93,210.06c0,28.9-23.43,52.33-52.33,52.33c-28.9,0-52.33-23.43-52.33-52.33
	c0-28.9,23.43-52.33,52.33-52.33C241.5,157.72,264.93,181.15,264.93,210.06z"/>
<path class="st18" d="M134.1,81.77c0,28.9-23.43,52.33-52.33,52.33s-52.33-23.43-52.33-52.33c0-28.9,23.43-52.33,52.33-52.33
	S134.1,52.87,134.1,81.77z"/>
<g class="st0">
	<defs>
		<path id="SVGID_10_" d="M134.1,212.6c0,28.9-23.43,52.33-52.33,52.33S29.44,241.5,29.44,212.6c0-28.9,23.43-52.33,52.33-52.33
			S134.1,183.7,134.1,212.6z"/>
	</defs>
	<clipPath id="SVGID_11_" class="st19">
		<use xlink:href="#SVGID_10_"  style="overflow:visible;"/>
	</clipPath>
	<g class="st20">
		<g>
			<rect x="73.3" y="229.25" class="st21" width="16.88" height="8.88"/>
			<path class="st22" d="M78.02,236.06c2.72-0.08,5.36-0.88,7.45-2.09c1.69-0.98,3.06-2.15,4.09-3.51c0.2-0.27,0.42-0.57,0.63-0.9
				v-0.32H73.3v6.65C74.87,236.05,76.46,236.11,78.02,236.06z"/>
		</g>
		<path class="st21" d="M81.74,179.4L81.74,179.4C81.74,179.39,81.74,179.4,81.74,179.4c-0.01,0-0.01,0-0.01,0v0
			c-10.79,0.3-19.02,4.74-18.98,20.02c0.02,9.06,0.85,11.74,3.49,22.08c1.83,7.16,11.55,10.93,15.25,11.17
			c0.08,0,0.16-0.01,0.25-0.02c0.08,0.01,0.17,0.02,0.25,0.02c3.71-0.25,13.43-4.02,15.25-11.17c2.64-10.34,3.47-13.01,3.49-22.08
			C100.77,184.13,92.53,179.7,81.74,179.4z"/>
		<path class="st23" d="M72.95,229.54c3.24,2.04,6.57,2.99,8.51,3.12c0.08,0,0.16-0.01,0.25-0.02c0.08,0.01,0.17,0.02,0.25,0.02
			c1.94-0.13,5.53-1.22,8.77-3.26C90.72,229.4,83.29,232.95,72.95,229.54z"/>
		<path class="st21" d="M98.66,205.71l-1.18,9.02c4.63,2.04,5.35-8.58,5.35-8.58C101.77,203.5,98.66,205.71,98.66,205.71z"/>
		<path class="st21" d="M60.07,206.15c0,0,0.72,10.62,5.35,8.58l-1.18-9.02C64.25,205.71,61.14,203.5,60.07,206.15z"/>
		<path class="st21" d="M90.33,238.14l22.8,5.94c0,0,7.78,1.19,9.77,8.18l3.4,12.67H81.96h-0.39H37.24l3.4-12.67
			c1.98-6.99,9.77-8.18,9.77-8.18l22.74-5.94H90.33z"/>
		<path class="st24" d="M37.24,264.93l3.4-12.67c1.98-6.99,9.77-8.18,9.77-8.18l22.74-5.94h17.18l22.8,5.94c0,0,7.78,1.19,9.77,8.18
			l3.4,12.67"/>
		<g>
			<polygon class="st25" points="83.24,238.14 81.8,238.14 81.74,238.14 80.3,238.14 76.13,244.72 79.86,248.92 81.74,248.92 
				81.8,248.92 83.68,248.92 87.41,244.72 			"/>
			<path class="st26" d="M83.85,248.12c-2.45-2.57-3.48-6.47-2.84-9.99h-0.7l-4.18,6.58l3.73,4.2h3.82l0.46-0.52
				C84.04,248.31,83.94,248.22,83.85,248.12z"/>
		</g>
		<g>
			<polygon class="st26" points="90.21,233.98 81.71,238.42 87.31,246.86 97.48,240.74 			"/>
			<polygon class="st24" points="90.21,233.98 81.71,238.42 87.41,245.74 96.93,240.23 			"/>
		</g>
		<g>
			<polygon class="st26" points="73.25,233.7 81.71,238.14 76.15,246.58 65.98,240.45 			"/>
			<polygon class="st24" points="73.25,233.7 81.76,238.14 76.05,245.46 66.54,239.95 			"/>
		</g>
		<path class="st27" d="M66.64,239.85l-16.24,4.23c0,0-7.78,1.19-9.77,8.18l-3.4,12.67h89.06l-3.4-12.67
			c-1.99-6.99-9.77-8.18-9.77-8.18l-17-4.88L81.71,264.3L66.64,239.85z"/>
		<polygon class="st25" points="79.8,248.92 77.76,257.9 81.71,264.3 85.38,257.9 83.61,248.92 		"/>
		<polygon points="66.64,239.85 58.95,241.85 63.29,243.53 60.61,246.58 76.13,264.93 82.15,264.93 		"/>
		<polygon points="96.13,239.2 104.59,241.62 100.25,243.53 102.93,246.58 87.42,264.93 81.39,264.93 		"/>
		<path class="st23" d="M98.68,215.89l-1.4,0.91l1.4-14.24l-2.32-4.92c0,0,2.13-10.96-13.64-11.28c0,0-13.26-0.74-14.98,5.28
			c0,0-7.19-11.79,12.18-14.61c0,0,19.37-1.6,21.46,10.19c0,0,1.53,12.96-1.02,18.53L98.68,215.89z"/>
		<path class="st23" d="M61.93,193.77c0,0,0.19,4.79,1.07,11.98l1.69,10.15l1.4,0.91l-1.4-14.24l2.41-5.68l0.47-4.61l0.18-0.63
			v-7.81C62.13,184.56,61.93,193.77,61.93,193.77z"/>
		<path class="st28" d="M68.66,184.75c0.35,0.53,1.08,1.17,1.29,1.58c0.08-0.72-0.32-1.34-0.27-2.03c1.06,0.53,2.4,0.68,3.47,1.08
			c-0.03-0.59-0.15-1.34-0.34-1.91c1.78-0.15,2.93,1.41,4.59,1.45c0.06-0.92-0.38-1.64-0.44-2.46c1.76-0.07,3.32,1.54,5.05,1.35
			c-0.06-0.57-0.27-1.38-0.42-2c1.61-0.09,4.16,1.96,5.39,2.9c0.04-0.78-0.04-1.58,0.12-2.36c2.27,0.86,4.1,2.61,6.14,3.86
			c0.07-0.7-0.19-1.34-0.16-2.02c2.39,1.16,3.72,4.11,5.41,6.05c0.01-0.56-0.44-0.99-0.43-1.54c0.43,0.58,0.84,1.22,1.28,1.81
			c-0.97-1.3-1.69-3.11-2.33-4.64c0.25,0.54,0.48,1.08,0.76,1.6c-0.97-1.41-2.63-2.78-3.07-4.48c-0.14,0.38,0.12,0.84,0.4,1.16
			c-0.79-1.03-2.48-2.6-3.69-3.05c0.07,0.6,0.7,0.99,0.81,1.58c-0.91-0.52-1.9-1.72-2.92-1.9c0.06,0.16,0,0.46,0.07,0.62
			c-1.16,0.2-2.61-0.91-3.57-1.45c-0.02,0.38,0.17,0.72,0.25,1.08c-0.88-0.22-1.76-0.96-2.67-1.08c-0.11,0.29-0.1,0.61,0,0.9
			c-1.27,0.06-2.52-0.45-3.76-0.34c0.05,0.14,0.01,0.49,0.05,0.6c-0.64-0.32-2.17-0.8-2.88-0.52c-0.63,0.24-0.49,0.25-0.42,1
			c-1.06,0.06-2.14-0.01-3.2,0.02c-0.02,0.31-0.14,0.59-0.12,0.9c-0.76,0.07-1.51-0.13-2.28-0.07c0,0.18-0.13,0.34-0.12,0.52
			c-0.75,0.04-2.04-0.25-1.84,0.92c-0.1-0.02-0.23-0.03-0.34-0.07c-0.09,0.39,0.01,0.72,0.35,0.82"/>
		<path class="st28" d="M66.17,185.11c0.14,1.29,0.9,2.28,0.83,3.68c-0.06,1.13-0.42,3.09-1.37,3.79c0.01,2.98,0.16,7.72-1.88,10.17
			c-0.34-0.92-0.43-2.17-0.98-2.97c0.32,0.19,0.65,0.36,0.99,0.42c-0.17-1.31-1.03-3.04-0.8-4.38c0.47,0.42,0.88,0.84,1.35,1.23
			c0.09-0.86-0.67-1.57-0.89-2.38c-0.22-0.84-0.68-2.78-0.56-3.67c0.62,0.33,1.1,1.02,1.63,1.46c-0.13-0.88-0.1-1.91-0.06-2.83
			c0.38,0.07,0.69,0.33,1.08,0.44c0.12-0.66-0.39-1.22-0.54-1.84c-0.12-0.49-0.11-1.02-0.08-1.53c0.41,0.22,0.8,0.53,1.17,0.79
			c-0.25-0.52-0.67-1.83-0.17-2.29"/>
	</g>
</g>
<g class="st0">
	<defs>
		<path id="SVGID_12_" d="M395.76,343.43c0,28.9-23.43,52.33-52.33,52.33c-28.9,0-52.33-23.43-52.33-52.33
			c0-28.9,23.43-52.33,52.33-52.33C372.33,291.1,395.76,314.53,395.76,343.43z"/>
	</defs>
	<clipPath id="SVGID_13_" class="st19">
		<use xlink:href="#SVGID_12_"  style="overflow:visible;"/>
	</clipPath>
	<g class="st29">
		<g>
			<rect x="334.96" y="360.09" class="st21" width="16.88" height="8.88"/>
			<path class="st22" d="M339.68,366.9c2.72-0.08,5.36-0.88,7.45-2.09c1.69-0.98,3.06-2.15,4.09-3.51c0.2-0.27,0.42-0.57,0.63-0.9
				v-0.31h-16.88v6.65C336.53,366.88,338.12,366.94,339.68,366.9z"/>
		</g>
		<path class="st21" d="M343.41,310.23L343.41,310.23C343.4,310.23,343.4,310.23,343.41,310.23c-0.01,0-0.01,0-0.01,0l0,0
			c-10.79,0.31-19.02,4.74-18.98,20.02c0.02,9.06,0.85,11.74,3.49,22.08c1.83,7.15,11.55,10.93,15.25,11.17
			c0.08-0.01,0.16-0.01,0.25-0.02c0.08,0.01,0.17,0.02,0.25,0.02c3.71-0.25,13.43-4.02,15.25-11.17
			c2.64-10.34,3.47-13.01,3.49-22.08C362.43,314.96,354.19,310.53,343.41,310.23z"/>
		<path class="st30" d="M337.65,361.95c2.17,0.94,4.21,1.46,5.5,1.55c0.08-0.01,0.16-0.01,0.25-0.02c0.08,0.01,0.17,0.02,0.25,0.02
			c1.21-0.08,3.05-0.54,5.05-1.36l1.93-2.68c0,0-5.97,6.69-14.41,0L337.65,361.95"/>
		<path class="st21" d="M360.32,336.54l-1.18,9.02c4.63,2.04,5.36-8.58,5.36-8.58C363.43,334.33,360.32,336.54,360.32,336.54z"/>
		<path class="st21" d="M321.73,336.98c0,0,0.72,10.62,5.36,8.58l-1.18-9.02C325.91,336.54,322.8,334.33,321.73,336.98z"/>
		<path class="st31" d="M359.36,324.51"/>
		<path class="st21" d="M351.99,368.97l22.8,5.93c0,0,7.78,1.19,9.77,8.18l3.4,12.67h-44.34h-0.39H298.9l3.4-12.67
			c1.98-6.99,9.77-8.18,9.77-8.18l22.74-5.93H351.99z"/>
		<path class="st24" d="M298.9,395.76l3.4-12.67c1.98-6.99,9.77-8.18,9.77-8.18l22.74-5.93h17.18l22.8,5.93c0,0,7.78,1.19,9.77,8.18
			l3.4,12.67"/>
		<g>
			<polygon class="st32" points="344.9,368.97 343.46,368.97 343.41,368.97 341.96,368.97 337.79,375.55 341.52,379.75 
				343.41,379.75 343.46,379.75 345.34,379.75 349.07,375.55 			"/>
			<path class="st26" d="M345.51,378.95c-2.44-2.57-3.47-6.47-2.84-9.98h-0.7l-4.18,6.58l3.74,4.2h3.82l0.46-0.52
				C345.7,379.15,345.6,379.05,345.51,378.95z"/>
		</g>
		<g>
			<polygon class="st26" points="351.87,364.81 343.37,369.25 348.97,377.69 359.14,371.57 			"/>
			<polygon class="st24" points="351.87,364.81 343.37,369.25 349.07,376.57 358.59,371.06 			"/>
		</g>
		<g>
			<polygon class="st26" points="334.91,364.53 343.37,368.97 337.81,377.41 327.64,371.28 			"/>
			<polygon class="st24" points="334.91,364.53 343.42,368.97 337.71,376.29 328.2,370.78 			"/>
		</g>
		<path class="st33" d="M328.31,370.68l-16.24,4.23c0,0-7.78,1.19-9.77,8.18l-3.4,12.67h89.06l-3.4-12.67
			c-1.99-6.99-9.77-8.18-9.77-8.18l-17-4.88l-14.42,25.11L328.31,370.68z"/>
		<polygon class="st32" points="341.46,379.75 339.43,388.73 343.37,395.13 347.04,388.73 345.27,379.75 		"/>
		<polygon class="st34" points="328.31,370.68 320.61,372.68 324.95,374.36 322.27,377.41 337.79,395.76 343.81,395.76 		"/>
		<polygon class="st34" points="357.79,370.03 366.25,372.45 361.92,374.36 364.59,377.41 349.08,395.76 343.05,395.76 		"/>
		<path class="st30" d="M326.18,337.86l0.95,11.45c-5.01-13.47-2.11-31.09-2.11-31.09c0.52-4.57,5.6-6.02,5.6-6.02
			c0.98-5.65,11.18-7.12,11.18-7.12c27.98-0.98,20.6,29.84,20.6,29.84c0,4.67-3.03,15.6-3.03,15.6l1.13-14.83
			c0-2.83-2.7-5.83-2.51-7.89c1.15-12.27-7.95-10.77-7.95-10.77c-5.51,1.08-12.26-0.02-12.26-0.02s-10.7-3.56-9.59,11.41
			C328.2,328.4,329.11,330.01,326.18,337.86z"/>
		<path class="st21" d="M343.47,357.31c3.08-0.28,4.87-1.71,4.87-1.71c-3.21-1.45-4.62-0.79-4.93-0.6c-0.31-0.19-1.72-0.85-4.93,0.6
			c0,0,1.79,1.43,4.87,1.71v0.01c0.02,0,0.04,0,0.07,0c0.02,0,0.04,0,0.07,0V357.31z"/>
		<path class="st30" d="M351.35,354.41"/>
		<path class="st30" d="M341.79,350.85c-1.27-0.36-3.26,0.07-4.39,0.69c-1.35,0.75-2.29,2.09-2.74,3.54
			c-0.75,2.4,0.03,4.71,2.03,6.18c0.34,0.25,0.93,0.77,1.36,0.86c-1.14-1.32-1.96-3.03-1.97-4.8c-0.01-2.63,1.88-4.71,4.51-4.9
			c0.7-0.05,2.17,0.08,2.66,0.69C343.43,352.01,342.82,351.14,341.79,350.85z"/>
		<path class="st30" d="M344.85,350.85c1.27-0.36,3.26,0.07,4.39,0.69c1.35,0.75,2.29,2.09,2.74,3.54c0.75,2.4-0.03,4.71-2.03,6.18
			c-0.34,0.25-0.93,0.77-1.36,0.86c1.14-1.32,1.96-3.03,1.97-4.8c0.01-2.63-1.88-4.71-4.51-4.9c-0.7-0.05-2.3,0.08-2.79,0.69
			C343.09,352.01,343.82,351.14,344.85,350.85z"/>
		<path class="st30" d="M348.71,362.12c0,0,5.63-2.11,8.52-6.27c0,0-2.85,1.4-5.38,1.27C351.84,357.13,351.15,360.55,348.71,362.12z
			"/>
		<path class="st30" d="M338.11,362.12c0,0-5.64-2.11-8.52-6.27c0,0,2.85,1.4,5.38,1.27C334.97,357.13,335.67,360.55,338.11,362.12z
			"/>
		<path class="st30" d="M344.55,360.24c0.23-0.76,0.31-2.54-1.15-2.4c-1.46-0.14-1.38,1.63-1.15,2.4c0.31,1.01-1.49,2.08-1.5,2.02
			l0.01,0.06l2.64,0.55l2.64-0.55l0.01-0.06C346.04,362.33,344.24,361.25,344.55,360.24z"/>
		<path class="st35" d="M333.38,310.29c0.74,0.92,1.47,1.86,2.03,2.88c-0.01-0.95-0.03-1.92,0.02-2.86
			c1.07,0.67,1.99,2.33,3.26,2.54c0.05-0.64,0.03-1.35,0.09-1.95c1.45,0.87,4.92,3.35,4.75-0.03c1.3,0.36,2.36,1.91,3.81,2.16
			c-0.02-0.27,0.08-0.61,0.06-0.87c0.9,0.01,2.89,2.21,2.94,0.18c1.2,0.1,3.72,1.79,4.64,2.56c1.22,1.03,2.69,2.3,3.45,3.67
			c0.23-0.67,0-1.52-0.02-2.35c0.5,1.08,1.55,2.67,2.75,2.88c-0.02-0.02-0.26-0.38-0.31-0.46c0.06,0.52,0.12,0.68,0.35,1.16
			c-0.14-1.7-1.25-3.69-2.36-4.9c-0.01,0.14,0,0.34-0.03,0.48c-0.12-0.63-0.47-1.03-0.88-1.4c-0.04,0.43-0.33,0.92-0.27,1.41
			c-0.48-1.22-1.18-2.48-1.85-3.63c-0.09,0.34-0.36,0.71-0.35,1.21c-0.17-1.1-0.71-2.15-1.63-2.67c-0.05,0.21-0.16,0.45-0.21,0.71
			c-0.46-0.62-0.81-1.6-1.77-1.43c-0.07,0.28-0.32,0.54-0.39,0.73c-0.66-0.39-1.12-1.01-1.83-1.3c0.06,0.38-0.11,0.88-0.05,1.26
			c-1.05-0.52-2.06-1.73-3.25-0.92c-0.93-1.05-2.46-1.85-3.85-2c-0.28,1.09,0.6,2.06,1.37,2.77c-1.23-0.98-2.59-1.79-3.98-2.52
			c-0.13,1.65-1.66,0.47-2.28,1.57c-0.9-0.46-2.01-0.92-2.76,0c-2.35-1.97-2.53,1.28-1.07,2.05"/>
	</g>
</g>
<g class="st0">
	<defs>
		<path id="SVGID_14_" d="M265.18,343.68c0,28.9-23.43,52.33-52.33,52.33c-28.9,0-52.33-23.43-52.33-52.33
			c0-28.9,23.43-52.33,52.33-52.33C241.75,291.35,265.18,314.78,265.18,343.68z"/>
	</defs>
	<clipPath id="SVGID_15_" class="st19">
		<use xlink:href="#SVGID_14_"  style="overflow:visible;"/>
	</clipPath>
	<g class="st36">
		<rect x="218.5" y="357.17" class="st37" width="11.34" height="15.22"/>
		<g>
			<rect x="204.95" y="359.78" class="st21" width="16.12" height="9.32"/>
			<path class="st22" d="M209.46,366.92c2.59-0.09,5.12-0.92,7.11-2.19c1.62-1.03,2.92-2.25,3.9-3.68c0.19-0.28,0.4-0.6,0.6-0.94
				v-0.33h-16.12v6.97C206.45,366.9,207.97,366.97,209.46,366.92z"/>
		</g>
		<path class="st21" d="M232.98,334.42c0-14.93-8.95-23.52-20.01-23.59c-0.03,0-0.06,0-0.1,0c-0.01,0-0.01,0-0.02,0
			c-0.01,0-0.01,0-0.02,0c-0.03,0-0.06,0-0.1,0c-11.06,0.07-20.01,8.65-20.01,23.59c0,19.37,13.94,30.67,20.11,30.71l0,0
			c0.01,0,0.01,0,0.02,0c0.01,0,0.01,0,0.02,0l0,0C219.04,365.08,232.98,353.79,232.98,334.42z"/>
		<g>
			<path class="st21" d="M231,339.95l-1.15,8.8c4.52,1.99,5.22-8.37,5.22-8.37C234.02,337.8,231,339.95,231,339.95z"/>
			<path class="st21" d="M191.14,340.38c0,0,0.71,10.36,5.22,8.37l-1.15-8.8C195.21,339.95,192.19,337.8,191.14,340.38z"/>
		</g>
		<path class="st21" d="M204.89,368.38l-19.39,6c0,0-6.79,1.2-8.52,8.27l-2.97,12.81h38.67h0.34h38.67l-2.97-12.81
			c-1.73-7.06-8.52-8.27-8.52-8.27l-19.39-6H204.89z"/>
		<path class="st38" d="M251.69,395.46l-2.97-12.81c-1.73-7.06-8.52-8.27-8.52-8.27l-8.25-2.55c0,0,3.49,8.82-12.72,15.31
			c0,0-4.76,1.44-6.26,5l-0.14,0.33l-0.1-0.33c-1.5-3.55-6.26-5-6.26-5c-16.21-6.49-12.72-15.31-12.72-15.31l-8.25,2.55
			c0,0-6.79,1.2-8.52,8.27l-2.97,12.81h39.73l0,0H251.69z"/>
		<path class="st39" d="M231.17,332.3c0.12,1.59,0.9,3.12,1.06,4.72c0.21,2.01-0.46,3.77-1.29,5.5c-1.82,3.82-2.81,8.76-2.11,12.99
			c0.33,1.99,1.22,3.52,2.51,4.97c1.2,1.35,2.67,2.41,3.18,4.19c1.34,4.73-2.49,5.72-4.77,8.85c-2.02,2.77-1.66,8.51-0.53,11.62
			c1.82,5.02,8.79,6.93,13.58,7.23c1.8,0.11,3.8,0.3,4.97-1.23c0.95-1.24,1.15-3.37,0.52-4.76c-0.58-1.28-1.59-1.48-2.64-2.29
			c-1.15-0.89-2.1-2.2-3-3.35c-2.22-2.83-2.55-6.56-0.17-9.5c2.15-2.66,4.16-4.4,3.83-8.14c-0.4-4.54-5.46-6.78-8.28-9.82
			c-2.7-2.91-0.34-5.58,1.02-8.45c1.03-2.19,1.86-4.15,1.63-6.69c-0.46-5.05-4.23-7.34-6.87-11.27"/>
		<path class="st31" d="M225.35,332.42c0.03,1.67,0.75,3.31,0.82,4.99c0.09,2.11-0.71,3.91-1.68,5.66
			c-2.13,3.87-3.47,8.98-2.99,13.43c0.22,2.1,1.06,3.75,2.32,5.35c1.17,1.49,2.64,2.67,3.06,4.57c1.11,5.02-2.94,5.82-5.51,8.95
			c-2.28,2.77-2.25,8.78-1.26,12.1c1.59,5.35,8.76,7.77,13.74,8.37c1.87,0.22,3.94,0.55,5.26-0.99c1.06-1.24,1.41-3.45,0.84-4.94
			c-0.52-1.37-1.57-1.64-2.61-2.55c-1.15-1-2.05-2.43-2.93-3.68c-2.14-3.09-2.26-7,0.4-9.93c2.41-2.65,4.61-4.34,4.49-8.27
			c-0.14-4.76-5.29-7.41-8.04-10.76c-2.64-3.21-0.01-5.85,1.58-8.76c1.21-2.22,1.5-4.3,2.11-6.89c1.37-5.84-0.22-14.51-2.74-18.77"
			/>
		<path class="st40" d="M200.39,321.25c0,0,15.45-7.88,21.17,7.89C221.56,329.14,223.87,305.05,200.39,321.25z"/>
		<path class="st41" d="M202.6,312.31c0,0-2.4,6.49-1.3,8.33c0,0-7.58,3.09-8.3,18.48c0,0-0.69-0.18-1.58,0.74
			C191.42,339.85,185.66,318.09,202.6,312.31z"/>
		<path class="st31" d="M200.39,321.25c0,0,18.71-13.71,20.68,6.22c0,0,2.87,12.73,11.91,11.64c0,0,5.53-12.7-5.15-25.96
			c0,0-7.55-9.58-18.6-6.12C209.23,307.03,198.37,310.83,200.39,321.25z"/>
		<path class="st37" d="M193.75,348.38c0,0,1.3,14.19,11.2,18.37v-5.24c0,0-6.77-6.07-9.32-12.54
			C195.63,348.97,194.4,349.15,193.75,348.38z"/>
	</g>
</g>
<g class="st0">
	<defs>
		<path id="SVGID_16_" d="M134.1,343.43c0,28.9-23.43,52.33-52.33,52.33s-52.33-23.43-52.33-52.33c0-28.9,23.43-52.33,52.33-52.33
			S134.1,314.53,134.1,343.43z"/>
	</defs>
	<clipPath id="SVGID_17_" class="st19">
		<use xlink:href="#SVGID_16_"  style="overflow:visible;"/>
	</clipPath>
	<g class="st42">
		<g>
			<rect x="73.3" y="359" class="st21" width="16.88" height="8.88"/>
			<path class="st22" d="M78.02,365.81c2.71-0.08,5.36-0.88,7.45-2.09c1.69-0.98,3.06-2.15,4.09-3.51c0.2-0.27,0.42-0.57,0.63-0.89
				V359H73.3v6.65C74.86,365.8,76.45,365.86,78.02,365.81z"/>
		</g>
		<path class="st21" d="M81.74,310.23L81.74,310.23C81.74,310.23,81.74,310.23,81.74,310.23c-0.01,0-0.01,0-0.01,0l0,0
			c-10.79,0.31-19.02,4.74-18.98,20.02c0.02,9.06,0.85,11.74,3.49,22.08c1.83,7.15,11.55,10.93,15.25,11.17
			c0.08-0.01,0.16-0.01,0.25-0.02c0.08,0.01,0.17,0.02,0.25,0.02c3.71-0.25,13.43-4.02,15.25-11.17
			c2.64-10.34,3.47-13.01,3.49-22.08C100.77,314.96,92.53,310.53,81.74,310.23z"/>
		<path class="st21" d="M98.66,335.45l-1.18,9.02c4.63,2.04,5.36-8.58,5.36-8.58C101.77,333.25,98.66,335.45,98.66,335.45z"/>
		<path class="st21" d="M60.07,336.98c0,0,0.72,10.62,5.35,8.58l-1.18-9.02C64.25,336.54,61.14,334.33,60.07,336.98z"/>
		<path class="st21" d="M90.33,368.97l22.8,5.93c0,0,7.78,1.19,9.77,8.18l3.4,12.67H81.96h-0.39H37.24l3.4-12.67
			c1.99-6.99,9.77-8.18,9.77-8.18l22.74-5.93H90.33z"/>
		<path class="st24" d="M37.24,395.76l3.4-12.67c1.99-6.99,9.77-8.18,9.77-8.18l22.74-5.93h17.18l22.8,5.93c0,0,7.78,1.19,9.77,8.18
			l3.4,12.67"/>
		<g>
			<polygon class="st43" points="83.24,367.89 81.79,367.89 81.74,367.89 80.3,367.89 76.13,374.47 79.86,378.67 81.74,378.67 
				81.79,378.67 83.68,378.67 87.41,374.47 			"/>
			<path class="st26" d="M83.84,377.87c-2.44-2.57-3.47-6.47-2.84-9.98h-0.7l-4.18,6.58l3.74,4.2h3.82l0.46-0.52
				C84.03,378.06,83.94,377.97,83.84,377.87z"/>
		</g>
		<g>
			<polygon class="st26" points="90.21,363.73 81.7,368.17 87.31,376.61 97.48,370.48 			"/>
			<polygon class="st24" points="90.21,363.73 81.7,368.17 87.41,375.49 96.92,369.98 			"/>
		</g>
		<g>
			<polygon class="st26" points="73.25,363.45 81.7,367.89 76.15,376.32 65.98,370.2 			"/>
			<polygon class="st24" points="73.25,363.45 81.76,367.89 76.05,375.21 66.54,369.7 			"/>
		</g>
		<path class="st44" d="M66.64,370.68l-16.24,4.23c0,0-7.78,1.19-9.77,8.18l-3.4,12.67h89.06l-3.4-12.67
			c-1.99-6.99-9.77-8.18-9.77-8.18l-17-4.88L81.7,395.13L66.64,370.68z"/>
		<polygon class="st43" points="79.8,378.67 77.76,387.65 81.7,394.05 85.38,387.65 83.61,378.67 		"/>
		<polygon class="st45" points="66.64,370.68 58.95,372.68 63.29,374.36 60.61,377.41 76.13,395.76 82.15,395.76 		"/>
		<polygon class="st45" points="96.13,368.94 104.59,371.37 100.25,373.28 102.93,376.32 87.42,394.68 81.39,394.68 		"/>
		<path class="st46" d="M63,336.58l1.68,10.15l1.4,0.91l-1.4-14.24l2.4-5.68l0.58-4.68l0.07-0.04c1.72-6.02,14.98-5.28,14.98-5.28
			c15.77,0.32,13.64,11.28,13.64,11.28l2.32,4.92l-1.4,14.24l1.4-0.91l1.69-10.15c2.55-5.58,1.02-18.53,1.02-18.53
			s-1.92-5.28-6.01-5.88c0,0-1.91-8.84-14.46-7.24c0,0-11.67,2.7-15.49-4.05c0,0-0.15,4.54,2.32,6.14c0,0-2.5-1.47-2.9-2.82
			c0,0,0.18,2.83,1.73,3.82c-0.77-0.46-3.61-2.28-4.63-4.92c0,0-0.81,4.3,2.5,6.63c0,0-4.55-2.58-4.36-5.52c0,0-1.42,6.02,2.68,7.49
			c0,0-1.51,1.1-5.07-3.07c0,0-1.03,7.13,4.05,7.86C61.73,316.98,59.73,321.03,63,336.58z M66.76,308.63c0,0-0.01,0-0.02-0.01
			C66.74,308.62,66.75,308.63,66.76,308.63z"/>
		<path class="st47" d="M62.96,322.63c0.34,0.12,1.25,0.84,1.83,1.1c-0.05-1.88-0.59-3.77-0.46-5.75c0.98,0.39,2.08,1,3.16,1.29
			c-0.66-0.92-1.1-2.07-0.95-3.25c1.42-0.18,2.56,1.02,3.89,0.95c0.12-0.99-0.29-2.02-0.21-3.04c2.09,0.33,4.26,1.23,6.36,1.57
			c-0.37-0.83-0.98-1.68-1.19-2.56c2.64,0.52,5.29,1.35,7.95,1.83c-0.23-0.71-1.03-1.34-0.97-2.18c2.81-0.29,5.9,2.16,8.56,2.79
			c-0.54-0.32-1.02-0.87-1.29-1.48c1.75,0.76,3.83,2.28,5.37,3.42c-0.26-0.22-0.46-0.41-0.68-0.67c0.78,0.6,1.57,1.23,2.29,1.9
			c-0.82-2.03-3.45-2.69-4.02-4.84c0.34,0.49,0.8,1,1.27,1.29c-0.71-1.64-2.71-3.05-4.04-4.17c-0.6-0.5-1.16-1.09-1.95-1.28
			c0.54,1.07,1.37,1.98,2.05,2.97c-1.23-0.82-2.55-2.38-4-2.66c0.15,0.93,1.14,1.81,1.44,2.68c-1.88-0.82-3.54-3.71-5.63-3.91
			c0.28,0.5,0.71,1.06,0.96,1.55c-1.06-0.68-3.07-1.76-4.38-1.56c0,0.92,0.71,1.92,1.2,2.67c-1.51-0.64-3.04-2.15-4.78-2.18
			c0.42,0.47,1.01,0.85,1.42,1.32c-1.14,0-4.39-1.75-5.36-0.95c-0.67,0.55,0.16,1.29,0.25,2.06c-0.7-0.34-3.1-1.94-3.93-1.23
			c-0.71,0.6,0.92,1.83,1.09,2.58c-1.19-0.23-2.23-1.06-3.51-0.95c0.16,0.58,0.71,1.02,1.05,1.56c-0.78-0.06-1.46-0.63-2.27-0.43
			c-0.06,0.43-0.04,0.88,0.06,1.29c-0.35-0.13-0.78-0.33-1.17-0.47c0.19,0.53,0.61,1.02,0.71,1.57c-0.07,0.01-0.14,0.03-0.21,0.04
			c0.26,0.5,0.49,1.09,0.46,1.66c-0.19-0.15-0.51-0.19-0.7-0.32c-0.14,0.95,0.14,1.96,0.09,2.93c-0.06,0.05-0.23,0.02-0.32,0.04
			c0.24,0.17,0.32,0.4,0.54,0.57c-0.06,0.02-0.12,0.04-0.19,0.05c0.42,0.79,0.58,2.24-0.03,2.97c0.06-0.35,0.22-0.62,0.38-0.91"/>
	</g>
</g>
<g class="st0">
	<defs>
		<path id="SVGID_18_" d="M395.76,81.77c0,28.9-23.43,52.33-52.33,52.33c-28.9,0-52.33-23.43-52.33-52.33
			c0-28.9,23.43-52.33,52.33-52.33C372.33,29.44,395.76,52.87,395.76,81.77z"/>
	</defs>
	<clipPath id="SVGID_19_" class="st19">
		<use xlink:href="#SVGID_18_"  style="overflow:visible;"/>
	</clipPath>
	<g class="st48">
		<g>
			<rect x="335.53" y="98.42" class="st21" width="16.12" height="9.31"/>
			<path class="st22" d="M340.04,105.57c2.59-0.09,5.12-0.92,7.11-2.19c1.62-1.03,2.92-2.25,3.9-3.68c0.19-0.28,0.41-0.6,0.6-0.94
				v-0.33h-16.12v6.97C337.03,105.55,338.55,105.62,340.04,105.57z"/>
		</g>
		<path class="st21" d="M363.56,73.06c0-14.93-8.95-23.52-20.01-23.59c-0.03,0-0.06,0-0.1,0c-0.01,0-0.01,0-0.02,0
			c-0.01,0-0.01,0-0.02,0c-0.03,0-0.06,0-0.1,0c-11.06,0.07-20.01,8.65-20.01,23.59c0,19.37,13.94,30.67,20.11,30.71l0,0
			c0.01,0,0.01,0,0.02,0c0.01,0,0.01,0,0.02,0v0C349.62,103.73,363.56,92.43,363.56,73.06z"/>
		<g>
			<path class="st21" d="M361.58,78.59l-1.15,8.8c4.52,1.99,5.22-8.37,5.22-8.37C364.6,76.44,361.58,78.59,361.58,78.59z"/>
			<path class="st21" d="M321.72,79.03c0,0,0.71,10.36,5.22,8.37l-1.15-8.8C325.8,78.59,322.77,76.44,321.72,79.03z"/>
		</g>
		<path class="st21" d="M335.47,107.03l-19.39,6c0,0-6.79,1.2-8.52,8.27l-2.97,12.81h38.67h0.34h38.67l-2.97-12.81
			c-1.73-7.06-8.52-8.27-8.52-8.27l-19.39-6H335.47z"/>
		<path class="st43" d="M365.87,122.96l1.35-11.1l-4.49-1.39c0,0-3.39,15.12-19.2,17.51c-15.81-2.39-19.2-17.51-19.2-17.51
			l-4.49,1.39l1.35,11.1c0,0-2.58,6.14-1.47,11.14h23.81h23.81C368.45,129.1,365.87,122.96,365.87,122.96z"/>
		<path class="st49" d="M360.43,76.63c0,0,1.26,16.81-8.77,22.8l0.17,8.13l17.9,5.14c0,0-3.25-3.59-2.1-17.63
			c0,0,7.65-38.53-12.08-48.1c0,0-12.79-5.71-24.82,0c0,0-21.37,8.47-11.27,44.57c0,0,2.27,10.47-2.31,21.17l18.33-5.67l0.06-6.48
			c0,0-8.06-6.25-8.59-13.15c0,0-5.1-21.35,5.78-27.17c0,0,10.58,13.04,19.72,15.7c0,0-2-1.85-6.44-7.65
			C346,68.28,350.42,76.02,360.43,76.63z"/>
		<path class="st50" d="M334.33,51.2c-0.13,4.33,6.56,9.12,9.23,11.91c-1.22-2.23-2.8-4.36-3.36-6.88c2.24,1.79,4.23,3.87,6.46,5.69
			c2.9,2.38,5.25,5.97,8.45,7.86c-0.57-1.7-2.61-3.35-3.49-5.11c-0.62-1.25-1.17-3.14-1.98-4.07c0.46,2.32,6.35,6.21,8.22,7.55
			c1.97,1.41,4.74,3.91,7.2,4.19c-0.96-2.69-1.89-5.8-3.28-8.44c-0.62-1.18-1.68-4.75-3.11-4.76c-0.3,1.47,1.17,3.33,1.04,5.12
			c-1.75-0.24-4.07-3.43-5.31-4.72c-1.51-1.57-3.08-4.99-5.31-5.37c-0.06,1.01,0,2.06-0.06,3.08c-1.58-0.08-13.63-12.9-14.34-5.68"
			/>
	</g>
</g>
<g class="st0">
	<defs>
		<path id="SVGID_20_" d="M395.76,212.6c0,28.9-23.43,52.33-52.33,52.33c-28.9,0-52.33-23.43-52.33-52.33
			c0-28.9,23.43-52.33,52.33-52.33C372.33,160.27,395.76,183.7,395.76,212.6z"/>
	</defs>
	<clipPath id="SVGID_21_" class="st19">
		<use xlink:href="#SVGID_20_"  style="overflow:visible;"/>
	</clipPath>
	<g class="st51">
		<g>
			<rect x="335.53" y="229.25" class="st21" width="16.12" height="9.31"/>
			<path class="st22" d="M340.04,236.4c2.59-0.09,5.12-0.92,7.11-2.19c1.62-1.03,2.92-2.25,3.9-3.68c0.19-0.28,0.41-0.6,0.6-0.94
				v-0.33h-16.12v6.97C337.03,236.38,338.55,236.45,340.04,236.4z"/>
		</g>
		<path class="st21" d="M363.56,203.89c0-14.93-8.95-23.52-20.01-23.59c-0.03,0-0.06,0-0.1,0c-0.01,0-0.01,0-0.02,0
			c-0.01,0-0.01,0-0.02,0c-0.03,0-0.06,0-0.1,0c-11.06,0.07-20.01,8.65-20.01,23.59c0,19.37,13.94,30.67,20.11,30.72l0,0
			c0.01,0,0.01,0,0.02,0c0.01,0,0.01,0,0.02,0v0C349.62,234.56,363.56,223.26,363.56,203.89z"/>
		<g>
			<path class="st21" d="M361.58,209.42l-1.15,8.8c4.52,1.99,5.22-8.37,5.22-8.37C364.6,207.28,361.58,209.42,361.58,209.42z"/>
			<path class="st21" d="M321.72,209.86c0,0,0.71,10.36,5.22,8.37l-1.15-8.8C325.8,209.42,322.77,207.28,321.72,209.86z"/>
		</g>
		<path class="st31" d="M359.15,196.22"/>
		<path class="st21" d="M335.47,237.86l-19.39,6c0,0-6.79,1.2-8.52,8.27l-2.97,12.81h38.67h0.34h38.67l-2.97-12.81
			c-1.73-7.06-8.52-8.27-8.52-8.27l-19.39-6H335.47z"/>
		<path class="st52" d="M362.58,241.32l8.2,2.54c0,0,6.79,1.2,8.52,8.27l2.97,12.81H343.6h-0.34h-38.67l2.97-12.81
			c1.73-7.06,8.52-8.27,8.52-8.27l8.25-2.55c0,0,0,18.17,19.1,18.63C343.43,259.94,362.21,261.87,362.58,241.32z"/>
		<path class="st31" d="M334.12,185.54c0.01,0.01,9.77,19.82,28.92,23.04c0,0,1.23-0.33,2.06,0.44c-0.15-0.14,0.3-2.49,0.31-2.71
			c0.19-2.36,0.34-4.73,0.23-7.09c-0.27-5.73-2.22-12.87-6.08-17.24c-1.35-1.53-3.05-2.66-4.88-3.54
			c-3.51-1.67-7.29-2.53-11.18-2.39c-2.97,0.11-6.74,0.88-8.42,3.61c-0.49,0.8-0.73,1.71-0.86,2.62
			C334.11,183.05,333.78,184.84,334.12,185.54z"/>
		<path class="st31" d="M335.53,188.03c0,0-9.53,5.06-11.95,20.56c0,0-2.06,0-1.82,1.78c0,0-4.1-27.76,13.3-30.71L335.53,188.03z"/>
		<path class="st31" d="M326.23,218.48c0,0,3.11,7.59,9.09,12.34c0,0,0.15,7.04,0.15,7.04c0.08,3.6-1.39,6.87-3.7,9.58
			c-2.19,2.57-5.26,4.23-7.37,6.82c-1.61,1.98-1.76,4.26-0.16,6.3c-0.23-0.3-3.16,0.02-3.75-0.07c-0.77-0.12-1.53-0.37-2.26-0.66
			c-1.83-0.73-3.19-2.04-3.9-3.9c-0.53-1.41-0.54-3.05-0.38-4.53c0.79-7.08,9.19-8.37,10.98-14.65c0.64-2.24,0.03-4.17-0.26-6.4
			C324.67,230.35,323.36,220.54,326.23,218.48z"/>
		<path class="st31" d="M359.93,207.9c0,0,1.27,43.94-4.75,53.27c0,0,7.24,4.3,7.86-52.58L359.93,207.9z"/>
		<path class="st53" d="M338.73,179.46c-1.18,2.8,0.61,8.17,1.85,10.81c-0.14-1.29,0.15-2.64,0.59-3.8
			c1.98,3.27,2.93,11.53,6.96,12.63c0.1-1.71-0.46-3.35-0.35-5.08c3.15,2.37,5.19,7.65,8.94,9.53c0.58-1.03,0.14-3.01-0.06-4.16
			c1.18,1.79,4.22,5.78,6.34,6c-0.08-1.59-1.62-3.33-2.37-4.75c-0.65-1.23-1.22-3.03-2.55-3.49c0.04,0.38-0.1,0.86-0.06,1.24
			c-1.66-0.6-2.38-4.68-4.26-6.01c-2.18-1.54-1.32,1.2-1.46,3.07c-1.8-2.61-2.66-6.33-4.7-8.81c-0.45,0.92-0.67,2.03-1.34,2.77
			c-1.72-3.27-2.5-12.7-8.47-10.15"/>
		<path class="st53" d="M327.49,223.66c-0.6,1.68-0.56,5.52,0,7.03c0.13-0.16,0.4-0.42,0.51-0.57c1.09,2.78,0.48,8.57-1.26,10.97
			c0.14-0.3,0.38-0.61,0.53-0.85c0.13,2.42-2.78,5.9-4.74,7.12c0.01-0.25-0.07-0.58-0.05-0.81c-1.95,2.49-2.51,5.78-3.99,8.52
			c0.15-0.37,0.38-0.52,0.67-0.82c0.08,0.27,0.36,0.62,0.41,0.85c1.6-2.34,2.7-5.66,4.44-7.73c0.48,1.34,0.34,2.87,1.83,1.55
			c0.92-0.81,0.86-2.8,2.04-3.59c0.32-0.21,0.31-0.55,0.72-0.7c0.34-0.12,0.64,0.78,0.73,0.73c1.55-0.77,1.9-3.36,2.44-5.09
			c0.57-1.8,0.61-4.29,0.48-6.48c-0.21,0.31-0.86,0.69-1.12,1.09c-1.12-1.04-0.68-3.3-1.01-4.64c-0.26-1.06-0.87-2.32-1.19-3.44
			c-1.05,0.06-1.82-0.83-1.8-1.86"/>
	</g>
</g>
<g>
	<path class="st54" d="M264.93,212.6c0,28.9-23.43,52.33-52.33,52.33c-28.9,0-52.33-23.43-52.33-52.33
		c0-28.9,23.43-52.33,52.33-52.33C241.5,160.27,264.93,183.7,264.93,212.6z"/>
	<g>
		<defs>
			<path id="SVGID_22_" d="M264.93,212.6c0,28.9-23.43,52.33-52.33,52.33c-28.9,0-52.33-23.43-52.33-52.33
				c0-28.9,23.43-52.33,52.33-52.33C241.5,160.27,264.93,183.7,264.93,212.6z"/>
		</defs>
		<clipPath id="SVGID_23_">
			<use xlink:href="#SVGID_22_"  style="overflow:visible;"/>
		</clipPath>
		<g class="st55">
			<g>
				<rect x="204.13" y="229.26" class="st21" width="16.88" height="8.88"/>
				<path class="st22" d="M208.85,236.07c2.72-0.08,5.36-0.88,7.45-2.09c1.69-0.98,3.06-2.15,4.09-3.51c0.2-0.27,0.42-0.57,0.63-0.9
					v-0.32h-16.88v6.65C205.7,236.05,207.29,236.11,208.85,236.07z"/>
			</g>
			<path class="st21" d="M212.58,179.4L212.58,179.4C212.57,179.4,212.57,179.4,212.58,179.4c-0.01,0-0.01,0-0.01,0v0
				c-10.79,0.3-19.02,4.74-18.98,20.02c0.02,9.06,0.85,11.74,3.49,22.08c1.83,7.16,11.55,10.93,15.25,11.17
				c0.08,0,0.16-0.01,0.25-0.02c0.09,0.01,0.17,0.02,0.25,0.02c3.71-0.25,13.43-4.02,15.25-11.17c2.64-10.34,3.47-13.01,3.49-22.08
				C231.6,184.13,223.36,179.7,212.58,179.4z"/>
			<path class="st21" d="M229.49,205.71l-1.18,9.02c4.63,2.04,5.35-8.58,5.35-8.58C232.6,203.5,229.49,205.71,229.49,205.71z"/>
			<path class="st21" d="M190.9,206.15c0,0,0.72,10.62,5.35,8.58l-1.18-9.02C195.08,205.71,191.97,203.5,190.9,206.15z"/>
			<path class="st31" d="M228.53,193.68"/>
			<path class="st21" d="M221.16,238.14l22.8,5.94c0,0,7.78,1.19,9.77,8.18l3.4,12.67H212.8h-0.39h-44.34l3.4-12.67
				c1.99-6.99,9.77-8.18,9.77-8.18l22.74-5.94H221.16z"/>
			<path class="st24" d="M168.07,264.93l3.4-12.67c1.99-6.99,9.77-8.18,9.77-8.18l22.74-5.94h17.18l22.8,5.94
				c0,0,7.78,1.19,9.77,8.18l3.4,12.67"/>
			<g>
				<polygon class="st56" points="214.07,238.14 212.63,238.14 212.57,238.14 211.13,238.14 206.96,244.72 210.69,248.93 
					212.57,248.93 212.63,248.93 214.51,248.93 218.24,244.72 				"/>
				<path class="st26" d="M214.68,248.12c-2.44-2.57-3.48-6.47-2.84-9.99h-0.7l-4.18,6.58l3.73,4.2h3.82l0.46-0.52
					C214.87,248.32,214.77,248.22,214.68,248.12z"/>
			</g>
			<g>
				<polygon class="st26" points="221.04,233.7 212.54,238.14 218.14,246.58 228.31,240.45 				"/>
				<polygon class="st24" points="221.04,233.7 212.54,238.14 218.24,245.46 227.76,239.95 				"/>
			</g>
			<g>
				<polygon class="st26" points="204.08,233.7 212.54,238.14 206.98,246.58 196.81,240.45 				"/>
				<polygon class="st24" points="204.08,233.7 212.59,238.14 206.88,245.46 197.37,239.95 				"/>
			</g>
			<path class="st57" d="M197.47,239.85l-16.24,4.23c0,0-7.78,1.19-9.77,8.18l-3.4,12.67h89.06l-3.4-12.67
				c-1.99-6.99-9.77-8.18-9.77-8.18l-17-4.88l-14.42,25.11L197.47,239.85z"/>
			<polygon class="st56" points="210.63,248.93 208.59,257.9 212.54,264.3 216.21,257.9 214.44,248.93 			"/>
			<polygon class="st58" points="197.47,239.85 189.78,241.85 194.12,243.53 191.44,246.58 206.96,264.93 212.98,264.93 			"/>
			<polygon class="st58" points="226.96,239.2 235.42,241.62 231.08,243.53 233.76,246.58 218.25,264.93 212.22,264.93 			"/>
			<path class="st30" d="M195.35,207.03l0.95,11.45c-5.01-13.47-2.11-31.09-2.11-31.09c1.6-6.51,3.07-7.61,5.65-8.96
				c2.58-1.35,1.6-1.11,5.65-2.09c4.05-0.98,0,0,5.48-1.35c5.48-1.35,10.05,1.72,10.05,1.72c3.74,2.21,6.08,3.32,6.08,3.32
				c8.23,6.38,4.47,24.06,4.47,24.06c0,4.67-3.03,15.6-3.03,15.6l1.13-14.83c0-20.48-10.45-18.67-10.45-18.67
				c-5.51,1.08-12.26-0.02-12.26-0.02s-12.54-3.85-11.61,20.61"/>
			<path class="st30" d="M196.01,214.99c0,0,1.19,9.15,10.33,13.16c0,0,2.18,1.36,5.88,1.11v3.41c0,0-4.33,0.08-10.54-4.28
				C201.67,228.39,195.35,224.59,196.01,214.99z"/>
			<path class="st30" d="M229.07,214.99c0,0-1.25,9.15-10.87,13.16c0,0-2.3,1.36-6.18,1.11v3.41c0,0,4.55,0.08,11.09-4.28
				C223.11,228.39,229.77,224.59,229.07,214.99z"/>
			<path class="st30" d="M195.35,215.54c0,0,4.12,9.21,9.32,8.29c0,0,4.61-2.93,7.55-1.29c0,0,4.43-1.65,7.93,1.31
				c0,0,5.01-0.91,8.65-7.64c0,0-1.04,13.04-16.26,14.14C212.54,230.36,198.11,230.36,195.35,215.54z"/>
			<path class="st21" d="M212.64,226.48c3.08-0.28,4.87-1.71,4.87-1.71c-3.21-1.45-4.62-0.79-4.93-0.6
				c-0.31-0.19-1.72-0.85-4.93,0.6c0,0,1.79,1.43,4.87,1.71v0.01c0.02,0,0.04,0,0.07-0.01c0.02,0,0.05,0,0.07,0.01V226.48z"/>
			<path class="st59" d="M196.41,186.88c0.06,0.26-0.1,0.41,0.14,0.54c0.26-1.06,0.35-2.1,0.82-3.11c0.65,0.44,2.13,2.94,2.02,0.38
				c0.69-0.07,1.45,0.7,2,0.53c0.83-0.26,0.9-1.56,1.47-2.24c1.3,0.94,1.49,1.69,2.77,0.96c0.45-0.26,0.3-1.14,0.92-1.31
				c0.74-0.2,1.09,0.65,1.66,0.72c0.44,0.05,2.16-0.18,2.54-0.4c0.66-0.39,1.17-2.54,2.24-0.88c1.49-1.1,1.75,1.34,3.11,1.47
				c0-0.22,0.04-0.47,0.06-0.69c0.85,0.6,1.02-0.24,1.62-0.18c1.13,0.11,1.36,0.68,2.26,1.04c0.76,0.31,2.92,0.93,3.8,0.74
				c0.02-0.11,0.04-0.22,0.06-0.33c1.13,1.03,1.99,2.5,3.3,3.34c0.12-0.11,0.1-0.27,0.16-0.34c0.74,1.01,1.01,2.25,2.18,2.87
				c0.09-2.41-3.22-5.32-4.39-6.82c0.1,0.17,0.15,0.38,0.26,0.56c-1.21-1.19-2.79-2.29-4.45-3.1c0.07,0.25,0.05,0.61,0.13,0.86
				c-0.48-1.14-4.15-2.16-5.29-2.51c0.03,0.27-0.08,0.62-0.06,0.9c-0.07-0.05-0.98-0.66-1.08-0.6c0.33-0.21-1.42,0.68-0.73,0.6
				c-0.01,0-0.44,0.48-0.73,0.53c-0.32,0.05-1.29-0.77-1.64-0.87c-0.01,0.22-0.05,0.47-0.06,0.69c-0.26-0.19-0.93-0.37-1.23-0.69
				c0.01,0.27-0.09,0.61-0.07,0.89c-0.48-0.51-1.19-1.09-1.97-1.26c0.08,0.43-0.03,0.78,0.18,1.22c-0.38-0.75-0.94-1.09-1.49-0.52
				c-0.75-0.72-2.37-1.88-2.57-0.19c-0.22,0.01-0.32-0.17-0.53-0.14c-0.7,0.91-1.58,0.25-2.4,0c0.1,0.97,0,2.25-1.14,1.84
				c-0.07,0.22-0.12,0.46-0.2,0.7c-0.1-0.05-0.38-0.28-0.49-0.29c-0.63,0.62-1.72,0.59-2.58,1.07c0.04,1.45-0.4,2.68-0.4,4.2"/>
		</g>
	</g>
</g>
<g class="st0">
	<defs>
		<path id="SVGID_24_" d="M264.93,210.06c0,28.9-23.43,52.33-52.33,52.33c-28.9,0-52.33-23.43-52.33-52.33
			c0-28.9,23.43-52.33,52.33-52.33C241.5,157.72,264.93,181.15,264.93,210.06z"/>
	</defs>
	<clipPath id="SVGID_25_" class="st19">
		<use xlink:href="#SVGID_24_"  style="overflow:visible;"/>
	</clipPath>
	<g class="st60">
		<path class="st61" d="M189.65,209.71c0,0-2.96,21.65,13.62,21.94h17.55c0,0,15.6-4.01,12.54-21.94H189.65z"/>
		<g>
			<rect x="204.7" y="226.29" class="st21" width="16.12" height="9.32"/>
			<path class="st22" d="M209.21,233.43c2.59-0.09,5.12-0.92,7.11-2.19c1.62-1.03,2.92-2.25,3.9-3.68c0.19-0.28,0.41-0.6,0.6-0.94
				v-0.33H204.7v6.97C206.2,233.42,207.72,233.48,209.21,233.43z"/>
		</g>
		<path class="st21" d="M232.73,200.93c0-14.93-8.95-23.52-20.01-23.59c-0.03,0-0.06,0-0.1,0c-0.01,0-0.01,0-0.02,0
			c-0.01,0-0.01,0-0.02,0c-0.03,0-0.06,0-0.1,0c-11.07,0.07-20.01,8.65-20.01,23.59c0,19.37,13.94,30.67,20.11,30.72l0,0
			c0.01,0,0.01,0,0.02,0c0.01,0,0.01,0,0.02,0l0,0C218.79,231.6,232.73,220.3,232.73,200.93z"/>
		<g>
			<path class="st21" d="M230.75,206.46l-1.15,8.8c4.52,1.99,5.22-8.37,5.22-8.37C233.77,204.31,230.75,206.46,230.75,206.46z"/>
			<path class="st21" d="M190.89,206.89c0,0,0.71,10.36,5.22,8.37l-1.15-8.8C194.96,206.46,191.93,204.31,190.89,206.89z"/>
		</g>
		<path class="st31" d="M228.31,193.26"/>
		<path class="st21" d="M204.64,234.9l-19.39,6c0,0-6.79,1.2-8.52,8.27l-2.97,12.81h38.67h0.34h38.67l-2.97-12.81
			c-1.73-7.06-8.52-8.27-8.52-8.27l-19.39-6H204.64z"/>
		<path class="st43" d="M229.6,237.69l10.35,3.2c0,0,6.79,1.2,8.52,8.27l2.97,12.81h-38.67h-0.34h-38.67l2.97-12.81
			c1.73-7.06,8.52-8.27,8.52-8.27l10.29-3.18C195.53,237.72,210.03,247.4,229.6,237.69z"/>
		<path class="st26" d="M176.73,251.99c1.73-7.06,8.52-8.27,8.52-8.27l10.29-3.18c0,0,14.5,9.69,34.06-0.02l10.35,3.2
			c0,0,6.79,1.21,8.52,8.27l2.31,9.98h0.65l-2.97-12.81c-1.73-7.06-8.52-8.27-8.52-8.27l-10.35-3.2
			c-19.56,9.71-34.06,0.02-34.06,0.02l-10.29,3.18c0,0-6.79,1.2-8.52,8.27l-2.97,12.81h0.65L176.73,251.99z"/>
		<path class="st62" d="M188,199.09c-1.47,31.86,5.51,34.62,5.51,34.62c9.31,1.9,9.77-2.07,9.77-2.07
			c-12.26-3.25-9.96-32.37-9.96-32.37s7.52-5.36,8.73-11.82l0.29-10.11C202.34,177.34,192.47,178.1,188,199.09z"/>
		<path class="st23" d="M201.56,186.76c0,0,8.1,12.65,29.22,12.52c0,0,2.31,29.12-9.96,32.37c0,0,0.77,4.48,10.08,2.58
			c0,0,7.12,1.38,6.02-33.6c0,0,0.12-33.4-29.47-26.89C207.45,173.74,196.41,178.41,201.56,186.76z"/>
		<path class="st63" d="M202.14,181.6c-0.26,1.37,1.61,5.3,2.95,5.68c1.71,0.49,1.19-1.08,1.46-2.3c0.96,1.59,2.39,3.66,4.22,4.33
			c-0.03-0.7,0.06-1.46,0.24-2.13c1.54,1.52,4.05,3.47,6,4.34c0.42-0.96,0.31-2.14-0.13-3.09c2.73,0.52,4.83,3.37,7.51,4.01
			c-0.02-0.72-0.03-1.5,0.25-2.17c2.38,0.51,4.95,2.71,7.12,3.98c0.12-0.84-0.1-1.68-0.13-2.51c0.94,0.47,1.75,1.37,2.71,1.81
			c-0.11-2.11-1.73-5.42-4.18-5.3c0.07,0.44-0.06,0.99,0.12,1.39c-1.37-1.95-3.77-4.62-5.64-6c-0.06,0.77,0.33,1.44,0.54,2.14
			c-1.14-1.23-2.76-3.08-4.41-3.43c-0.17,1.35,0.3,2.68,0.12,4.03c-1.38-0.52-1.78-2.74-3.24-3.49c0,0.51-0.32,1.09-0.25,1.64
			c-1.75-0.76-3.27-2.51-4.92-3.48c0.04,1.27,0.73,2.45,1.48,3.45c-0.79-1.05-1.54-2.61-2.77-3.04c-0.16,0.9,0.03,1.86,0.62,2.57
			c-1.27-0.43-1.86-1.66-2.87-2.37c0,0.19-0.21,0.7-0.2,1.02c-1.47,0.15-2.76-1.7-4.37-1.79c0.11,0.39-0.03,0.84,0.15,1.25
			C203.76,181.91,202.51,181.2,202.14,181.6"/>
	</g>
</g>
<g class="st0">
	<defs>
		<path id="SVGID_26_" d="M134.1,81.77c0,28.9-23.43,52.33-52.33,52.33s-52.33-23.43-52.33-52.33c0-28.9,23.43-52.33,52.33-52.33
			S134.1,52.87,134.1,81.77z"/>
	</defs>
	<clipPath id="SVGID_27_" class="st19">
		<use xlink:href="#SVGID_26_"  style="overflow:visible;"/>
	</clipPath>
	<g class="st64">
		<polygon class="st65" points="98.77,110.79 65.28,110.79 59.45,80.94 101.9,80.94 		"/>
		<g>
			<rect x="73.87" y="98.42" class="st21" width="16.12" height="9.32"/>
			<path class="st22" d="M78.38,105.57c2.59-0.09,5.12-0.92,7.11-2.19c1.62-1.03,2.92-2.25,3.9-3.68c0.19-0.28,0.4-0.6,0.6-0.94
				v-0.33H73.87v6.97C75.37,105.55,76.89,105.62,78.38,105.57z"/>
		</g>
		<path class="st21" d="M101.9,73.06c0-14.93-8.95-23.52-20.01-23.59c-0.03,0-0.06,0-0.1,0c-0.01,0-0.01,0-0.02,0
			c-0.01,0-0.01,0-0.02,0c-0.03,0-0.06,0-0.1,0c-11.06,0.07-20.01,8.65-20.01,23.59c0,19.37,13.94,30.66,20.11,30.72h0
			c0.01,0,0.01,0,0.02,0c0.01,0,0.01,0,0.02,0h0C87.95,103.73,101.9,92.43,101.9,73.06z"/>
		<g>
			<path class="st21" d="M99.91,78.59l-1.15,8.8c4.52,1.99,5.22-8.37,5.22-8.37C102.94,76.44,99.91,78.59,99.91,78.59z"/>
			<path class="st21" d="M60.06,79.03c0,0,0.71,10.36,5.22,8.37l-1.15-8.8C64.13,78.59,61.1,76.44,60.06,79.03z"/>
		</g>
		<path class="st21" d="M73.81,107.03l-19.39,6c0,0-6.79,1.2-8.52,8.27l-2.97,12.81H81.6h0.34h38.67l-2.97-12.81
			c-1.73-7.06-8.52-8.27-8.52-8.27l-19.39-6H73.81z"/>
		<path class="st32" d="M104.21,122.96l1.35-11.1l-4.49-1.39c0,0-3.39,15.12-19.2,17.51c-15.81-2.39-19.2-17.51-19.2-17.51
			l-4.49,1.39l1.35,11.1c0,0-2.58,6.14-1.47,11.14h23.81h23.81C106.79,129.1,104.21,122.96,104.21,122.96z"/>
		<path class="st46" d="M72.24,55.83c0,0,3.43,10.5,19.67,16.02c0,0,12.39,1.53,14.05,6.64c0,0,3.87-16.92-4.06-25.72
			c0,0-12.81-15.84-29.65-3.29C72.24,49.48,69.15,50.67,72.24,55.83z"/>
		<path class="st46" d="M72.04,50.21c0,0-19.11,3.82-10.23,27.55c0,0,1.17-17.53,12.85-17.66L72.04,50.21z"/>
		<path class="st46" d="M69.05,110.81c0,0-15.58-2.58-13.55-25.27c0,0,0.6-25.94,8.77-30.05l1.35,9.79
			C65.63,65.29,59.45,84.16,69.05,110.81z"/>
		<path class="st46" d="M96.82,110.81c0,0,15.58-2.58,13.55-25.27c0,0-0.6-25.94-8.77-30.05l-2.79,8.93
			C98.8,64.42,103.89,95.92,96.82,110.81z"/>
		<path class="st66" d="M74.68,49.24c-0.68,1.68,0.21,4.2,0.39,6.06c0.77-0.29,0.88-1.34,1.64-1.8c0.59,1.15,1.01,2.47,1.64,3.66
			c1.03,1.94,2.95,5.29,4.81,6.48c0.53-0.71,0.33-1.64,0.4-2.55c1.25,1.57,2.68,3.41,4.16,4.71c-0.07-0.5,0.12-1.12,0.06-1.62
			c1.93,1.04,3.23,3.68,5.28,4.38c-0.08-0.53,0.21-0.97,0.25-1.44c1.31,0.9,2.62,2.46,3.97,3.07c0.74,0.34,2.19,0.17,2.81,0.9
			c-0.01-1.26-0.26-3.25-1.27-3.97c0,0.35-0.18,0.74-0.21,0.94c-0.41-0.58-0.89-1.43-1.44-1.86c-0.02,0.23-0.04,0.48-0.06,0.71
			c-0.1-0.2-0.58-0.73-0.71-1.04c-0.04,0.22-0.18,0.54-0.21,0.85c-0.65-0.66-1.05-2.08-2.19-2.17c-0.02,0.27-0.32,1.07-0.31,1.26
			c-0.22-1.05-0.91-2.48-2.08-2.55c-0.04,0.25-0.34,0.8-0.36,0.99c-0.09-0.57-0.49-0.98-0.69-1.48c-0.15,0.11-0.26,0.24-0.42,0.34
			c-0.66-1.32-0.52-3.12-1.29-4.32c-0.26,0.51-0.4,1.2-0.36,1.83c-0.08-0.57-0.37-1.21-0.74-1.63c-0.08,0.21-0.46,0.65-0.55,0.91
			c-0.39-0.81-1.17-3.18-1.69-1.07c-0.26-0.44-0.55-1.08-0.74-1.65c-0.15,0.35-0.74,0.97-0.88,1.28c-0.3-0.95-0.94-2.63-1.8-1.3
			c-0.14-0.75-0.37-1.53-0.92-2.01c0.03,0.54-0.1,1.25-0.18,1.65c-0.02-1.04-0.29-2.1-0.96-2.89c-0.06,0.38-0.26,0.86-0.18,1.37
			c0.05-0.96-0.11-1.87-0.6-2.7c-0.14,0.04-0.11,0.25-0.13,0.26c-0.09-1.54-0.94-2.21-1.65-3.2c-0.21,0.04-0.36,0.11-0.57,0.14
			c-0.16-0.39-0.51-0.59-0.69-0.89c-0.05,0.48-0.28,0.94-0.27,1.41c-0.17-0.75-0.56-1.15-1.25-0.87"/>
		<path class="st66" d="M71.55,54.03c-0.4,0.78,0.34,2.56,0.75,3.43c-0.14-0.7-0.6-1.19-1.28-1.2c0.03,0.43-0.13,0.96-0.02,1.39
			c-0.26-0.66-0.56-0.55-0.94-0.85c-0.17,0.52-0.24,1.19-0.2,1.79c-0.37-0.16-1.13-0.26-1.46-0.5c-0.21,0.61-0.14,1.35-0.35,1.96
			c-0.25-0.31-0.53-0.33-0.71-0.48c0.18,1.03-0.55,1.14-0.77,1.62c-0.33,0.75-0.71,1.68-0.96,2.59c-0.23-0.5-0.66-0.97-0.93-1.46
			c-0.2,0.88-0.36,2.07-0.35,3.05c-0.09-0.06-0.19-0.1-0.3-0.11c-0.1,0.66-0.26,1.33-0.4,1.98c-0.08-0.41-0.3-0.8-0.38-1.2
			c-0.09,0.76-0.21,1.56-0.21,2.33c-0.19-0.16-0.51-0.23-0.67-0.33c-0.14,0.67-0.22,1.34-0.22,2.03c0,0.14,0.01,0.13,0.01-0.02
			c0.02-0.14-0.03-0.2-0.15-0.18c-0.02,0.51-0.27,1.08-0.35,1.45c-0.53-0.92-0.91-1.91-1.21-2.92c-0.07-0.01-0.12,0.02-0.15,0.09
			c-0.06-0.56-0.01-1.2,0.04-1.75c0.19,0.02,0.31,0.12,0.49,0.15c0.21-0.62,0.28-1.26,0.22-1.91c0.01,0.3,0.12,0.67,0.14,0.81
			c-0.05-0.49,0.19-0.96,0.26-1.43c0.24,0.11,0.81,0.04,1.04,0.13c-0.07-0.94,0.18-1.84,0.44-2.72c0.09,0.14,0.42,0.4,0.52,0.52
			c0.09-0.3,0.17-0.54,0.22-0.88c0.08,0,0.25,0.2,0.29,0.15c0.12-0.58,0.34-1.21,0.6-1.67c0.16,0.29,0.72,0.66,0.87,0.94
			c0.18-0.73,0.25-1.42,0.46-2.14c0.07,0.15,0.1,0.34,0.18,0.48c0.21-0.61,0.43-1.53,0.87-2.18c0.2,0.03,0.33,0.1,0.52,0.15
			c0.12-0.45,0.61-0.77,0.76-1.11c0.18,0.15,0.6,0.25,0.75,0.38c0.13-0.42,0.6-0.85,0.73-1.26c0.2-0.01,0.16,0.14,0.33,0.15
			c0.13-0.49,0.39-0.48,0.78-0.72"/>
	</g>
</g>
</svg>
